<svg width="1366" height="768" viewBox="0 0 1366 768" fill="none" xmlns="http://www.w3.org/2000/svg">
<g clip-path="url(#clip0_84_3487)">
<g filter="url(#filter0_d_84_3487)">
<path fill-rule="evenodd" clip-rule="evenodd" d="M177.822 276.273C177.389 277.305 177.873 278.492 178.904 278.926C184.378 281.227 189.319 280.692 193.781 278.138C198.111 275.658 201.899 271.333 205.422 266.231C208.94 261.138 212.338 255.05 215.814 248.823L215.879 248.706C219.398 242.402 223.013 235.933 227.001 229.981C234.678 218.525 246.347 213.224 258.746 210.624C267.794 208.726 276.974 208.302 285.156 207.925C288.282 207.781 291.261 207.643 294.033 207.433C303.92 206.682 321.604 203.882 335.457 196.783C342.392 193.23 348.55 188.507 352.204 182.244C355.907 175.898 356.91 168.187 353.895 159.018C353.545 157.956 352.4 157.377 351.338 157.727C350.275 158.076 349.697 159.221 350.046 160.284C352.733 168.456 351.77 174.949 348.705 180.203C345.591 185.54 340.18 189.811 333.61 193.178C320.454 199.919 303.391 202.659 293.726 203.393C291.167 203.587 288.325 203.718 285.289 203.859C277.021 204.24 267.308 204.688 257.914 206.658C244.962 209.375 232.128 215.052 223.635 227.726C219.54 233.838 215.847 240.453 212.342 246.731L212.341 246.733C208.816 253.047 205.496 258.995 202.089 263.929C198.664 268.887 195.296 272.602 191.768 274.622C188.372 276.566 184.754 276.99 180.475 275.191C179.443 274.758 178.256 275.242 177.822 276.273Z" fill="#F5DEB3"/>
</g>
<g filter="url(#filter1_d_84_3487)">
<path fill-rule="evenodd" clip-rule="evenodd" d="M935.822 542.273C935.389 543.305 935.873 544.492 936.904 544.926C942.378 547.227 947.319 546.692 951.781 544.138C956.111 541.658 959.899 537.333 963.422 532.231C966.94 527.138 970.338 521.05 973.814 514.823L973.879 514.706C977.398 508.402 981.013 501.933 985.001 495.981C992.678 484.525 1004.35 479.224 1016.75 476.624C1025.79 474.726 1034.97 474.302 1043.16 473.925C1046.28 473.781 1049.26 473.643 1052.03 473.433C1061.92 472.682 1079.6 469.882 1093.46 462.783C1100.39 459.23 1106.55 454.507 1110.2 448.244C1113.91 441.898 1114.91 434.187 1111.89 425.018C1111.55 423.956 1110.4 423.377 1109.34 423.727C1108.27 424.076 1107.7 425.221 1108.05 426.284C1110.73 434.456 1109.77 440.949 1106.7 446.203C1103.59 451.54 1098.18 455.811 1091.61 459.178C1078.45 465.919 1061.39 468.659 1051.73 469.393C1049.17 469.587 1046.33 469.718 1043.29 469.859C1035.02 470.24 1025.31 470.688 1015.91 472.658C1002.96 475.375 990.128 481.052 981.635 493.726C977.54 499.838 973.847 506.453 970.342 512.731L970.341 512.733C966.816 519.047 963.496 524.995 960.089 529.929C956.664 534.887 953.296 538.602 949.768 540.622C946.372 542.566 942.754 542.99 938.475 541.191C937.443 540.758 936.256 541.242 935.822 542.273Z" fill="#F5DEB3"/>
</g>
<g filter="url(#filter2_d_84_3487)">
<path fill-rule="evenodd" clip-rule="evenodd" d="M230.896 416.373C230.419 417.388 230.856 418.597 231.871 419.073C237.257 421.602 242.227 421.269 246.799 418.893C251.236 416.588 255.206 412.413 258.944 407.448C262.675 402.492 266.327 396.536 270.062 390.443L270.133 390.328C273.914 384.16 277.798 377.831 282.036 372.034C290.192 360.877 302.094 356.048 314.615 353.952C323.753 352.422 332.963 352.374 341.171 352.331C344.306 352.315 347.296 352.3 350.079 352.202C360.01 351.856 377.833 349.777 391.995 343.236C399.084 339.962 405.444 335.485 409.359 329.364C413.327 323.161 414.647 315.481 412.003 306.177C411.697 305.098 410.574 304.472 409.496 304.779C408.417 305.085 407.791 306.208 408.098 307.286C410.454 315.579 409.223 322.042 405.939 327.176C402.602 332.393 397.009 336.448 390.293 339.55C376.844 345.761 359.645 347.806 349.938 348.145C347.367 348.235 344.517 348.249 341.47 348.265C333.176 348.309 323.432 348.359 313.945 349.947C300.864 352.137 287.781 357.296 278.758 369.638C274.407 375.591 270.438 382.063 266.671 388.206L266.67 388.208C262.882 394.385 259.314 400.205 255.7 405.006C252.068 409.831 248.543 413.412 244.927 415.29C241.447 417.098 237.807 417.375 233.596 415.398C232.581 414.921 231.372 415.358 230.896 416.373Z" fill="#F5DEB3"/>
</g>
<g filter="url(#filter3_d_84_3487)">
<path fill-rule="evenodd" clip-rule="evenodd" d="M1147.9 520.373C1147.42 521.388 1147.86 522.597 1148.87 523.073C1154.26 525.602 1159.23 525.269 1163.8 522.893C1168.24 520.588 1172.21 516.413 1175.94 511.448C1179.67 506.492 1183.33 500.536 1187.06 494.443L1187.13 494.328C1190.91 488.16 1194.8 481.831 1199.04 476.034C1207.19 464.877 1219.09 460.048 1231.62 457.952C1240.75 456.422 1249.96 456.374 1258.17 456.331C1261.31 456.315 1264.3 456.3 1267.08 456.202C1277.01 455.856 1294.83 453.777 1308.99 447.236C1316.08 443.962 1322.44 439.485 1326.36 433.364C1330.33 427.161 1331.65 419.481 1329 410.177C1328.7 409.098 1327.57 408.472 1326.5 408.779C1325.42 409.085 1324.79 410.208 1325.1 411.286C1327.45 419.579 1326.22 426.042 1322.94 431.176C1319.6 436.393 1314.01 440.448 1307.29 443.55C1293.84 449.761 1276.65 451.806 1266.94 452.145C1264.37 452.235 1261.52 452.249 1258.47 452.265C1250.18 452.309 1240.43 452.359 1230.94 453.947C1217.86 456.137 1204.78 461.296 1195.76 473.638C1191.41 479.591 1187.44 486.063 1183.67 492.206L1183.67 492.208C1179.88 498.385 1176.31 504.205 1172.7 509.006C1169.07 513.831 1165.54 517.412 1161.93 519.29C1158.45 521.098 1154.81 521.375 1150.6 519.398C1149.58 518.921 1148.37 519.358 1147.9 520.373Z" fill="#F5DEB3"/>
</g>
<g filter="url(#filter4_d_84_3487)">
<path fill-rule="evenodd" clip-rule="evenodd" d="M43.9748 622.57C43.4571 623.699 43.9526 625.034 45.0815 625.552C51.0731 628.299 56.5745 627.881 61.6155 625.204C66.5073 622.607 70.8634 617.943 74.9539 612.406C79.0375 606.88 83.0237 600.246 87.1011 593.46L87.1779 593.332C91.3055 586.463 95.5451 579.413 100.182 572.95C109.105 560.512 122.241 555.044 136.089 552.598C146.197 550.813 156.397 550.669 165.489 550.54C168.961 550.491 172.272 550.444 175.355 550.309C186.352 549.827 206.072 547.347 221.695 539.961C229.514 536.265 236.515 531.243 240.791 524.423C245.124 517.513 246.51 508.993 243.49 498.713C243.14 497.522 241.89 496.84 240.699 497.19C239.507 497.54 238.825 498.79 239.175 499.981C241.867 509.143 240.568 516.314 236.981 522.034C233.337 527.846 227.181 532.393 219.772 535.895C204.937 542.909 185.907 545.344 175.158 545.816C172.311 545.941 169.154 545.985 165.78 546.033C156.593 546.163 145.8 546.316 135.307 548.169C120.84 550.724 106.399 556.568 96.5272 570.329C91.7662 576.966 87.434 584.174 83.3229 591.016L83.3214 591.018C79.1874 597.898 75.2926 604.38 71.3368 609.734C67.3618 615.114 63.4925 619.116 59.5064 621.232C55.6695 623.269 51.6404 623.612 46.9562 621.463C45.8273 620.946 44.4925 621.441 43.9748 622.57Z" fill="#F5DEB3"/>
</g>
<g filter="url(#filter5_d_84_3487)">
<path fill-rule="evenodd" clip-rule="evenodd" d="M989.975 381.57C989.458 382.699 989.953 384.034 991.082 384.552C997.074 387.299 1002.57 386.881 1007.62 384.204C1012.51 381.607 1016.86 376.943 1020.95 371.406C1025.04 365.88 1029.02 359.246 1033.1 352.46L1033.18 352.332C1037.31 345.463 1041.55 338.413 1046.18 331.95C1055.11 319.512 1068.24 314.044 1082.09 311.598C1092.2 309.813 1102.4 309.669 1111.49 309.54C1114.96 309.491 1118.27 309.444 1121.36 309.309C1132.35 308.827 1152.07 306.347 1167.7 298.961C1175.51 295.265 1182.52 290.243 1186.79 283.423C1191.12 276.513 1192.51 267.993 1189.49 257.713C1189.14 256.522 1187.89 255.84 1186.7 256.19C1185.51 256.54 1184.83 257.79 1185.18 258.981C1187.87 268.143 1186.57 275.314 1182.98 281.034C1179.34 286.846 1173.18 291.393 1165.77 294.895C1150.94 301.909 1131.91 304.344 1121.16 304.816C1118.31 304.941 1115.15 304.985 1111.78 305.033C1102.59 305.163 1091.8 305.316 1081.31 307.169C1066.84 309.724 1052.4 315.568 1042.53 329.329C1037.77 335.966 1033.43 343.174 1029.32 350.016L1029.32 350.018C1025.19 356.898 1021.29 363.38 1017.34 368.734C1013.36 374.114 1009.49 378.116 1005.51 380.232C1001.67 382.269 997.641 382.612 992.957 380.463C991.828 379.946 990.493 380.441 989.975 381.57Z" fill="#F5DEB3"/>
</g>
<g filter="url(#filter6_d_84_3487)">
<circle cx="113.5" cy="233.5" r="12.5" fill="#0E2F50"/>
</g>
<g filter="url(#filter7_d_84_3487)">
<circle cx="216.5" cy="341.5" r="12.5" fill="#0E2F50"/>
</g>
<g filter="url(#filter8_d_84_3487)">
<circle cx="88.5" cy="485.5" r="12.5" fill="#0E2F50"/>
</g>
<g filter="url(#filter9_d_84_3487)">
<circle cx="88.5" cy="721.5" r="12.5" fill="#0E2F50"/>
</g>
<g filter="url(#filter10_d_84_3487)">
<circle cx="375.5" cy="683.5" r="12.5" fill="#0E2F50"/>
</g>
<g filter="url(#filter11_d_84_3487)">
<circle cx="995.5" cy="714.5" r="12.5" fill="#0E2F50"/>
</g>
<g filter="url(#filter12_d_84_3487)">
<circle cx="1210.5" cy="646.5" r="12.5" fill="#0E2F50"/>
</g>
<g filter="url(#filter13_d_84_3487)">
<circle cx="1241.5" cy="358.5" r="12.5" fill="#0E2F50"/>
</g>
<g filter="url(#filter14_d_84_3487)">
<circle cx="1067.5" cy="219.5" r="12.5" fill="#0E2F50"/>
</g>
<g filter="url(#filter15_d_84_3487)">
<circle cx="1210.5" cy="100.5" r="12.5" fill="#0E2F50"/>
</g>
<path d="M113 329L115.694 337.292H124.413L117.359 342.416L120.053 350.708L113 345.584L105.947 350.708L108.641 342.416L101.587 337.292H110.306L113 329Z" fill="#2D3648"/>
<path d="M228 124L230.694 132.292H239.413L232.359 137.416L235.053 145.708L228 140.584L220.947 145.708L223.641 137.416L216.587 132.292H225.306L228 124Z" fill="#2D3648"/>
<path d="M230 453L232.694 461.292H241.413L234.359 466.416L237.053 474.708L230 469.584L222.947 474.708L225.641 466.416L218.587 461.292H227.306L230 453Z" fill="#2D3648"/>
<path d="M347 577L349.694 585.292H358.413L351.359 590.416L354.053 598.708L347 593.584L339.947 598.708L342.641 590.416L335.587 585.292H344.306L347 577Z" fill="#2D3648"/>
<path d="M216 630L218.694 638.292H227.413L220.359 643.416L223.053 651.708L216 646.584L208.947 651.708L211.641 643.416L204.587 638.292H213.306L216 630Z" fill="#2D3648"/>
<path d="M1068 589L1070.69 597.292H1079.41L1072.36 602.416L1075.05 610.708L1068 605.584L1060.95 610.708L1063.64 602.416L1056.59 597.292H1065.31L1068 589Z" fill="#2D3648"/>
<path d="M1265 494L1267.69 502.292H1276.41L1269.36 507.416L1272.05 515.708L1265 510.584L1257.95 515.708L1260.64 507.416L1253.59 502.292H1262.31L1265 494Z" fill="#2D3648"/>
<path d="M1253 703L1255.69 711.292H1264.41L1257.36 716.416L1260.05 724.708L1253 719.584L1245.95 724.708L1248.64 716.416L1241.59 711.292H1250.31L1253 703Z" fill="#2D3648"/>
<path d="M1253 196L1255.69 204.292H1264.41L1257.36 209.416L1260.05 217.708L1253 212.584L1245.95 217.708L1248.64 209.416L1241.59 204.292H1250.31L1253 196Z" fill="#2D3648"/>
<path d="M958 419L960.694 427.292H969.413L962.359 432.416L965.053 440.708L958 435.584L950.947 440.708L953.641 432.416L946.587 427.292H955.306L958 419Z" fill="#2D3648"/>
<g clip-path="url(#clip1_84_3487)">
<path d="M292.206 612.832C292.206 613.48 291.236 614.007 290.039 614.007C288.845 614.007 287.874 613.48 287.874 612.832C287.874 612.182 288.845 611.654 290.039 611.654C291.236 611.654 292.206 612.182 292.206 612.832Z" fill="#0E2F50"/>
<path d="M351.735 604.693C351.735 605.343 350.765 605.871 349.57 605.871C348.373 605.871 347.403 605.343 347.403 604.693C347.403 604.045 348.373 603.518 349.57 603.518C350.765 603.518 351.735 604.045 351.735 604.693Z" fill="#0E2F50"/>
<path d="M681.418 705.501C681.418 706.151 680.448 706.677 679.251 706.677C678.057 706.677 677.086 706.151 677.086 705.501C677.086 704.851 678.057 704.325 679.251 704.325C680.448 704.325 681.418 704.851 681.418 705.501Z" fill="#0E2F50"/>
<path d="M896.786 634.673C896.786 635.323 895.815 635.849 894.621 635.849C893.424 635.849 892.453 635.323 892.453 634.673C892.453 634.023 893.424 633.497 894.621 633.497C895.815 633.497 896.786 634.023 896.786 634.673Z" fill="#0E2F50"/>
<path d="M821.601 684.265C821.601 684.915 820.63 685.442 819.433 685.442C818.236 685.442 817.269 684.915 817.269 684.265C817.269 683.616 818.236 683.089 819.433 683.089C820.63 683.089 821.601 683.616 821.601 684.265Z" fill="#0E2F50"/>
<path d="M669.948 574.861C669.948 575.511 668.98 576.037 667.783 576.037C666.586 576.037 665.618 575.511 665.618 574.861C665.618 574.211 666.586 573.686 667.783 573.686C668.98 573.686 669.948 574.211 669.948 574.861Z" fill="#0E2F50"/>
<path d="M439.173 340.443C439.173 341.093 438.205 341.619 437.008 341.619C435.811 341.619 434.843 341.093 434.843 340.443C434.843 339.793 435.811 339.268 437.008 339.268C438.205 339.268 439.173 339.793 439.173 340.443Z" fill="#0E2F50"/>
<path d="M570.361 432.387C570.361 433.037 569.393 433.562 568.196 433.562C566.999 433.562 566.031 433.037 566.031 432.387C566.031 431.737 566.999 431.211 568.196 431.211C569.393 431.211 570.361 431.737 570.361 432.387Z" fill="#0E2F50"/>
<path d="M636.883 376.27C636.883 376.92 635.915 377.448 634.718 377.448C633.521 377.448 632.553 376.92 632.553 376.27C632.553 375.622 633.521 375.095 634.718 375.095C635.915 375.095 636.883 375.622 636.883 376.27Z" fill="#0E2F50"/>
<path d="M222.899 469.014C222.899 469.664 221.929 470.189 220.733 470.189C219.537 470.189 218.567 469.664 218.567 469.014C218.567 468.364 219.537 467.838 220.733 467.838C221.929 467.838 222.899 468.364 222.899 469.014Z" fill="#0E2F50"/>
<path d="M317.577 520.761C317.577 521.411 316.606 521.938 315.412 521.938C314.215 521.938 313.245 521.411 313.245 520.761C313.245 520.112 314.215 519.585 315.412 519.585C316.606 519.585 317.577 520.112 317.577 520.761Z" fill="#0E2F50"/>
<path d="M181.439 572.508C181.439 573.158 180.469 573.685 179.273 573.685C178.077 573.685 177.107 573.158 177.107 572.508C177.107 571.859 178.077 571.332 179.273 571.332C180.469 571.332 181.439 571.859 181.439 572.508Z" fill="#0E2F50"/>
<path d="M112.131 596.113C112.131 596.763 111.162 597.291 109.966 597.291C108.77 597.291 107.8 596.763 107.8 596.113C107.8 595.465 108.77 594.938 109.966 594.938C111.162 594.938 112.131 595.465 112.131 596.113Z" fill="#0E2F50"/>
<path d="M873.888 551.759C873.888 552.408 872.92 552.935 871.723 552.935C870.527 552.935 869.559 552.408 869.559 551.759C869.559 551.109 870.527 550.582 871.723 550.582C872.92 550.582 873.888 551.109 873.888 551.759Z" fill="#0E2F50"/>
<path d="M1149.57 534.286C1149.57 534.936 1148.6 535.462 1147.4 535.462C1146.21 535.462 1145.24 534.936 1145.24 534.286C1145.24 533.636 1146.21 533.11 1147.4 533.11C1148.6 533.11 1149.57 533.636 1149.57 534.286Z" fill="#0E2F50"/>
<path d="M839.237 542.939C839.237 543.587 838.266 544.115 837.069 544.115C835.875 544.115 834.904 543.587 834.904 542.939C834.904 542.289 835.875 541.762 837.069 541.762C838.266 541.762 839.237 542.289 839.237 542.939Z" fill="#0E2F50"/>
<path d="M589.237 205.572C589.237 206.221 588.266 206.748 587.069 206.748C585.875 206.748 584.904 206.221 584.904 205.572C584.904 204.922 585.875 204.396 587.069 204.396C588.266 204.396 589.237 204.922 589.237 205.572Z" fill="#0E2F50"/>
<path d="M819.434 262.024C819.434 262.673 818.466 263.2 817.269 263.2C816.072 263.2 815.101 262.673 815.101 262.024C815.101 261.374 816.072 260.849 817.269 260.849C818.466 260.849 819.434 261.374 819.434 262.024Z" fill="#0E2F50"/>
<path d="M869.559 317.426C869.559 318.075 868.588 318.602 867.391 318.602C866.197 318.602 865.227 318.075 865.227 317.426C865.227 316.776 866.197 316.249 867.391 316.249C868.588 316.249 869.559 316.776 869.559 317.426Z" fill="#0E2F50"/>
<path d="M185.77 105.732C185.77 106.381 184.801 106.908 183.604 106.908C182.408 106.908 181.438 106.381 181.438 105.732C181.438 105.082 182.408 104.556 183.604 104.556C184.801 104.556 185.77 105.082 185.77 105.732Z" fill="#0E2F50"/>
<path d="M341.71 143.775C341.71 144.424 340.742 144.951 339.545 144.951C338.348 144.951 337.38 144.424 337.38 143.775C337.38 143.125 338.348 142.599 339.545 142.599C340.742 142.599 341.71 143.125 341.71 143.775Z" fill="#0E2F50"/>
<path d="M386.264 404.89C386.264 405.54 385.296 406.065 384.099 406.065C382.902 406.065 381.935 405.54 381.935 404.89C381.935 404.24 382.902 403.714 384.099 403.714C385.296 403.714 386.264 404.24 386.264 404.89Z" fill="#0E2F50"/>
<path d="M641.216 491.863C641.216 492.513 640.248 493.039 639.051 493.039C637.854 493.039 636.883 492.513 636.883 491.863C636.883 491.213 637.854 490.688 639.051 490.688C640.248 490.688 641.216 491.213 641.216 491.863Z" fill="#0E2F50"/>
<path d="M356.068 216.495C356.068 217.145 355.097 217.672 353.9 217.672C352.706 217.672 351.735 217.145 351.735 216.495C351.735 215.847 352.706 215.319 353.9 215.319C355.097 215.319 356.068 215.847 356.068 216.495Z" fill="#0E2F50"/>
<path d="M190.102 281.916C190.102 282.566 189.133 283.092 187.936 283.092C186.74 283.092 185.771 282.566 185.771 281.916C185.771 281.266 186.74 280.74 187.936 280.74C189.133 280.74 190.102 281.266 190.102 281.916Z" fill="#0E2F50"/>
<path d="M151.117 183.017C151.117 183.667 150.147 184.192 148.951 184.192C147.755 184.192 146.785 183.667 146.785 183.017C146.785 182.367 147.755 181.841 148.951 181.841C150.147 181.841 151.117 182.367 151.117 183.017Z" fill="#0E2F50"/>
<path d="M257.552 363.797C257.552 364.446 256.583 364.973 255.386 364.973C254.19 364.973 253.221 364.446 253.221 363.797C253.221 363.147 254.19 362.62 255.386 362.62C256.583 362.62 257.552 363.147 257.552 363.797Z" fill="#0E2F50"/>
<path d="M541.588 224.39C541.588 225.04 540.617 225.565 539.423 225.565C538.226 225.565 537.255 225.04 537.255 224.39C537.255 223.74 538.226 223.214 539.423 223.214C540.617 223.214 541.588 223.74 541.588 224.39Z" fill="#0E2F50"/>
<path d="M901.119 192.131C901.119 192.78 900.148 193.307 898.951 193.307C897.757 193.307 896.786 192.78 896.786 192.131C896.786 191.481 897.757 190.954 898.951 190.954C900.148 190.954 901.119 191.481 901.119 192.131Z" fill="#0E2F50"/>
<path d="M747.033 352.035C747.033 352.685 746.063 353.212 744.868 353.212C743.671 353.212 742.701 352.685 742.701 352.035C742.701 351.387 743.671 350.859 744.868 350.859C746.063 350.859 747.033 351.387 747.033 352.035Z" fill="#0E2F50"/>
<path d="M1077.48 406.065C1077.48 406.715 1076.51 407.243 1075.31 407.243C1074.12 407.243 1073.15 406.715 1073.15 406.065C1073.15 405.417 1074.12 404.89 1075.31 404.89C1076.51 404.89 1077.48 405.417 1077.48 406.065Z" fill="#0E2F50"/>
<path d="M834.904 218.848C834.904 219.496 833.934 220.023 832.739 220.023C831.542 220.023 830.572 219.496 830.572 218.848C830.572 218.198 831.542 217.672 832.739 217.672C833.934 217.672 834.904 218.198 834.904 218.848Z" fill="#0E2F50"/>
<path d="M802.725 118.872C802.725 119.522 801.757 120.048 800.56 120.048C799.363 120.048 798.396 119.522 798.396 118.872C798.396 118.223 799.363 117.696 800.56 117.696C801.757 117.696 802.725 118.223 802.725 118.872Z" fill="#0E2F50"/>
<path d="M729.398 79.8929C729.398 80.5425 728.427 81.0689 727.23 81.0689C726.036 81.0689 725.065 80.5425 725.065 79.8929C725.065 79.2434 726.036 78.7168 727.23 78.7168C728.427 78.7168 729.398 79.2434 729.398 79.8929Z" fill="#0E2F50"/>
<path d="M1045.07 170.208C1045.07 170.858 1044.1 171.384 1042.9 171.384C1041.71 171.384 1040.74 170.858 1040.74 170.208C1040.74 169.56 1041.71 169.032 1042.9 169.032C1044.1 169.032 1045.07 169.56 1045.07 170.208Z" fill="#0E2F50"/>
<path d="M1005.7 118.872C1005.7 119.522 1004.73 120.048 1003.53 120.048C1002.34 120.048 1001.37 119.522 1001.37 118.872C1001.37 118.223 1002.34 117.696 1003.53 117.696C1004.73 117.696 1005.7 118.223 1005.7 118.872Z" fill="#0E2F50"/>
<path d="M1238.37 185.368C1238.37 186.018 1237.4 186.544 1236.21 186.544C1235.01 186.544 1234.04 186.018 1234.04 185.368C1234.04 184.72 1235.01 184.192 1236.21 184.192C1237.4 184.192 1238.37 184.72 1238.37 185.368Z" fill="#0E2F50"/>
<path d="M1118.38 319.777C1118.38 320.427 1117.41 320.953 1116.21 320.953C1115.02 320.953 1114.05 320.427 1114.05 319.777C1114.05 319.127 1115.02 318.602 1116.21 318.602C1117.41 318.602 1118.38 319.127 1118.38 319.777Z" fill="#0E2F50"/>
<path d="M853.526 437.763C853.526 438.413 852.556 438.94 851.361 438.94C850.164 438.94 849.194 438.413 849.194 437.763C849.194 437.114 850.164 436.587 851.361 436.587C852.556 436.587 853.526 437.114 853.526 437.763Z" fill="#0E2F50"/>
<path d="M1177.78 193.014C1177.78 193.664 1176.82 194.189 1175.62 194.189C1174.42 194.189 1173.45 193.664 1173.45 193.014C1173.45 192.364 1174.42 191.838 1175.62 191.838C1176.82 191.838 1177.78 192.364 1177.78 193.014Z" fill="#0E2F50"/>
<path d="M1156.07 352.035C1156.07 352.685 1155.1 353.212 1153.9 353.212C1152.71 353.212 1151.74 352.685 1151.74 352.035C1151.74 351.387 1152.71 350.859 1153.9 350.859C1155.1 350.859 1156.07 351.387 1156.07 352.035Z" fill="#0E2F50"/>
<path d="M933.76 483.043C933.76 483.693 932.79 484.219 931.593 484.219C930.398 484.219 929.428 483.693 929.428 483.043C929.428 482.393 930.398 481.867 931.593 481.867C932.79 481.867 933.76 482.393 933.76 483.043Z" fill="#0E2F50"/>
<path d="M1151.74 92.6272C1151.74 93.2767 1150.77 93.8033 1149.57 93.8033C1148.37 93.8033 1147.4 93.2767 1147.4 92.6272C1147.4 91.9777 1148.37 91.4512 1149.57 91.4512C1150.77 91.4512 1151.74 91.9777 1151.74 92.6272Z" fill="#0E2F50"/>
<path d="M961.915 287.226C961.915 287.876 960.947 288.401 959.75 288.401C958.553 288.401 957.585 287.876 957.585 287.226C957.585 286.576 958.553 286.05 959.75 286.05C960.947 286.05 961.915 286.576 961.915 287.226Z" fill="#0E2F50"/>
<path d="M1214.39 443.14C1214.39 443.789 1213.42 444.316 1212.23 444.316C1211.03 444.316 1210.06 443.789 1210.06 443.14C1210.06 442.49 1211.03 441.963 1212.23 441.963C1213.42 441.963 1214.39 442.49 1214.39 443.14Z" fill="#0E2F50"/>
<path d="M234.811 190.955C234.811 192.742 232.145 194.189 228.855 194.189C225.566 194.189 222.899 192.742 222.899 190.955C222.899 189.169 225.566 187.722 228.855 187.722C232.145 187.722 234.811 189.169 234.811 190.955Z" fill="#0E2F50"/>
<path d="M653.128 299.826C653.128 301.612 650.462 303.061 647.173 303.061C643.882 303.061 641.216 301.612 641.216 299.826C641.216 298.04 643.882 296.592 647.173 296.592C650.462 296.592 653.128 298.04 653.128 299.826Z" fill="#0E2F50"/>
<path d="M532.925 547.35C532.925 549.136 530.256 550.583 526.968 550.583C523.68 550.583 521.013 549.136 521.013 547.35C521.013 545.562 523.68 544.115 526.968 544.115C530.256 544.115 532.925 545.562 532.925 547.35Z" fill="#0E2F50"/>
<path d="M193.892 649.751C193.892 651.538 191.225 652.985 187.936 652.985C184.647 652.985 181.98 651.538 181.98 649.751C181.98 647.965 184.647 646.518 187.936 646.518C191.225 646.518 193.892 647.965 193.892 649.751Z" fill="#0E2F50"/>
<path d="M945.673 399.303C945.673 401.089 943.006 402.537 939.715 402.537C936.427 402.537 933.761 401.089 933.761 399.303C933.761 397.517 936.427 396.068 939.715 396.068C943.006 396.068 945.673 397.517 945.673 399.303Z" fill="#0E2F50"/>
<path d="M1040.74 641.435C1040.74 643.221 1038.07 644.669 1034.78 644.669C1031.49 644.669 1028.82 643.221 1028.82 641.435C1028.82 639.649 1031.49 638.2 1034.78 638.2C1038.07 638.2 1040.74 639.649 1040.74 641.435Z" fill="#0E2F50"/>
<path d="M1096.66 487.453C1096.66 489.239 1093.99 490.688 1090.71 490.688C1087.42 490.688 1084.75 489.239 1084.75 487.453C1084.75 485.667 1087.42 484.219 1090.71 484.219C1093.99 484.219 1096.66 485.667 1096.66 487.453Z" fill="#0E2F50"/>
<path d="M741.31 652.189C741.31 653.974 738.643 655.423 735.352 655.423C732.064 655.423 729.397 653.974 729.397 652.189C729.397 650.401 732.064 648.954 735.352 648.954C738.643 648.954 741.31 650.401 741.31 652.189Z" fill="#0E2F50"/>
<path fill-rule="evenodd" clip-rule="evenodd" d="M743.576 431.687L723.775 442.439L722.025 441.488L741.825 430.736L743.576 431.687Z" fill="#0E2F50"/>
<path fill-rule="evenodd" clip-rule="evenodd" d="M350.601 283.561L331.049 272.675L332.822 271.737L352.374 282.623L350.601 283.561Z" fill="#0E2F50"/>
<path fill-rule="evenodd" clip-rule="evenodd" d="M1060.39 602.203L1037.45 593.479L1038.87 592.378L1061.81 601.102L1060.39 602.203Z" fill="#0E2F50"/>
<path fill-rule="evenodd" clip-rule="evenodd" d="M690.013 124.96L667.074 116.237L668.495 115.136L691.43 123.859L690.013 124.96Z" fill="#0E2F50"/>
<path fill-rule="evenodd" clip-rule="evenodd" d="M1108.87 137.662L1102.94 152.523L1100.52 152.239L1106.45 137.377L1108.87 137.662Z" fill="#0E2F50"/>
<path d="M437.008 471.702C437.008 472.352 436.038 472.878 434.843 472.878C433.646 472.878 432.676 472.352 432.676 471.702C432.676 471.052 433.646 470.526 434.843 470.526C436.038 470.526 437.008 471.052 437.008 471.702Z" fill="#0E2F50"/>
<path d="M313.245 637.024C313.245 637.674 312.277 638.2 311.08 638.2C309.883 638.2 308.915 637.674 308.915 637.024C308.915 636.374 309.883 635.849 311.08 635.849C312.277 635.849 313.245 636.374 313.245 637.024Z" fill="#0E2F50"/>
<path d="M1064.79 223.258C1064.79 225.044 1062.13 226.492 1058.84 226.492C1055.55 226.492 1052.88 225.044 1052.88 223.258C1052.88 221.472 1055.55 220.023 1058.84 220.023C1062.13 220.023 1064.79 221.472 1064.79 223.258Z" fill="#0E2F50"/>
<path d="M325.157 443.141C325.157 444.927 322.49 446.374 319.202 446.374C315.911 446.374 313.245 444.927 313.245 443.141C313.245 441.353 315.911 439.906 319.202 439.906C322.49 439.906 325.157 441.353 325.157 443.141Z" fill="#0E2F50"/>
<path d="M480.17 168.151C480.17 169.936 477.503 171.383 474.215 171.383C470.924 171.383 468.257 169.936 468.257 168.151C468.257 166.363 470.924 164.916 474.215 164.916C477.503 164.916 480.17 166.363 480.17 168.151Z" fill="#0E2F50"/>
<path d="M128.376 355.395C128.376 357.182 125.709 358.63 122.42 358.63C119.13 358.63 116.463 357.182 116.463 355.395C116.463 353.609 119.13 352.162 122.42 352.162C125.709 352.162 128.376 353.609 128.376 355.395Z" fill="#0E2F50"/>
<path fill-rule="evenodd" clip-rule="evenodd" d="M113.007 457.561L93.2048 468.313L91.4546 467.362L111.256 456.61L113.007 457.561Z" fill="#0E2F50"/>
<path fill-rule="evenodd" clip-rule="evenodd" d="M524.928 376.746L505.125 387.5L503.375 386.549L523.178 375.796L524.928 376.746Z" fill="#0E2F50"/>
<path d="M55.2013 656.22C55.2013 658.006 52.5345 659.454 49.2452 659.454C45.9556 659.454 43.2891 658.006 43.2891 656.22C43.2891 654.434 45.9556 652.985 49.2452 652.985C52.5345 652.985 55.2013 654.434 55.2013 656.22Z" fill="#0E2F50"/>
<path d="M27.3545 548.315C27.3545 548.965 26.385 549.491 25.1888 549.491C23.9926 549.491 23.0229 548.965 23.0229 548.315C23.0229 547.665 23.9926 547.14 25.1888 547.14C26.385 547.14 27.3545 547.665 27.3545 548.315Z" fill="#0E2F50"/>
<path d="M59.5328 116.863C59.5328 117.512 58.563 118.039 57.3669 118.039C56.1707 118.039 55.2012 117.512 55.2012 116.863C55.2012 116.213 56.1707 115.687 57.3669 115.687C58.563 115.687 59.5328 116.213 59.5328 116.863Z" fill="#0E2F50"/>
<path d="M5.0773 274.121C5.0773 274.771 4.10761 275.297 2.91144 275.297C1.71529 275.297 0.745605 274.771 0.745605 274.121C0.745605 273.471 1.71529 272.945 2.91144 272.945C4.10761 272.945 5.0773 273.471 5.0773 274.121Z" fill="#0E2F50"/>
<path d="M1366 355.395C1366 357.182 1363.33 358.63 1360.05 358.63C1356.75 358.63 1354.09 357.182 1354.09 355.395C1354.09 353.609 1356.75 352.162 1360.05 352.162C1363.33 352.162 1366 353.609 1366 355.395Z" fill="#0E2F50"/>
<path fill-rule="evenodd" clip-rule="evenodd" d="M1350.63 457.561L1330.83 468.313L1329.08 467.362L1348.88 456.61L1350.63 457.561Z" fill="#0E2F50"/>
<path d="M1292.82 656.22C1292.82 658.006 1290.16 659.454 1286.87 659.454C1283.58 659.454 1280.91 658.006 1280.91 656.22C1280.91 654.434 1283.58 652.985 1286.87 652.985C1290.16 652.985 1292.82 654.434 1292.82 656.22Z" fill="#0E2F50"/>
<path d="M1264.98 548.315C1264.98 548.965 1264.01 549.491 1262.81 549.491C1261.62 549.491 1260.65 548.965 1260.65 548.315C1260.65 547.665 1261.62 547.14 1262.81 547.14C1264.01 547.14 1264.98 547.665 1264.98 548.315Z" fill="#0E2F50"/>
<path d="M1182.12 686.618C1182.12 687.267 1181.15 687.794 1179.95 687.794C1178.75 687.794 1177.78 687.267 1177.78 686.618C1177.78 685.968 1178.75 685.442 1179.95 685.442C1181.15 685.442 1182.12 685.968 1182.12 686.618Z" fill="#0E2F50"/>
<path d="M1153.59 637.024C1153.59 637.674 1152.62 638.2 1151.43 638.2C1150.23 638.2 1149.26 637.674 1149.26 637.024C1149.26 636.374 1150.23 635.849 1151.43 635.849C1152.62 635.849 1153.59 636.374 1153.59 637.024Z" fill="#0E2F50"/>
<path d="M1297.16 116.863C1297.16 117.512 1296.19 118.039 1294.99 118.039C1293.8 118.039 1292.83 117.512 1292.83 116.863C1292.83 116.213 1293.8 115.687 1294.99 115.687C1296.19 115.687 1297.16 116.213 1297.16 116.863Z" fill="#0E2F50"/>
<path d="M1242.7 274.121C1242.7 274.771 1241.73 275.297 1240.54 275.297C1239.34 275.297 1238.37 274.771 1238.37 274.121C1238.37 273.471 1239.34 272.945 1240.54 272.945C1241.73 272.945 1242.7 273.471 1242.7 274.121Z" fill="#0E2F50"/>
<path d="M1034.78 700.197C1034.78 700.847 1033.81 701.373 1032.61 701.373C1031.42 701.373 1030.45 700.847 1030.45 700.197C1030.45 699.547 1031.42 699.021 1032.61 699.021C1033.81 699.021 1034.78 699.547 1034.78 700.197Z" fill="#0E2F50"/>
<path d="M1260.03 725.398C1260.03 726.048 1259.06 726.576 1257.86 726.576C1256.67 726.576 1255.7 726.048 1255.7 725.398C1255.7 724.75 1256.67 724.223 1257.86 724.223C1259.06 724.223 1260.03 724.75 1260.03 725.398Z" fill="black"/>
<path d="M898.95 728.633C898.95 730.419 896.284 731.867 892.996 731.867C889.705 731.867 887.038 730.419 887.038 728.633C887.038 726.847 889.705 725.398 892.996 725.398C896.284 725.398 898.95 726.847 898.95 728.633Z" fill="black"/>
<path fill-rule="evenodd" clip-rule="evenodd" d="M515.664 672.81L528.557 686.309L526.36 686.926L513.469 673.427L515.664 672.81Z" fill="#0E2F50"/>
<path d="M470.425 766.058C470.425 766.706 469.454 767.233 468.257 767.233C467.063 767.233 466.092 766.706 466.092 766.058C466.092 765.408 467.063 764.882 468.257 764.882C469.454 764.882 470.425 765.408 470.425 766.058Z" fill="black"/>
<path d="M116.463 714.982C116.463 715.632 115.494 716.158 114.298 716.158C113.102 716.158 112.132 715.632 112.132 714.982C112.132 714.332 113.102 713.807 114.298 713.807C115.494 713.807 116.463 714.332 116.463 714.982Z" fill="#0E2F50"/>
<path d="M402.354 707.854C402.354 708.502 401.386 709.03 400.189 709.03C398.992 709.03 398.024 708.502 398.024 707.854C398.024 707.204 398.992 706.677 400.189 706.677C401.386 706.677 402.354 707.204 402.354 707.854Z" fill="#0E2F50"/>
<path d="M504.25 610.478C504.25 611.128 503.28 611.654 502.086 611.654C500.889 611.654 499.918 611.128 499.918 610.478C499.918 609.83 500.889 609.303 502.086 609.303C503.28 609.303 504.25 609.83 504.25 610.478Z" fill="#0E2F50"/>
<path d="M1354.09 714.982C1354.09 715.632 1353.12 716.158 1351.92 716.158C1350.73 716.158 1349.75 715.632 1349.75 714.982C1349.75 714.332 1350.73 713.807 1351.92 713.807C1353.12 713.807 1354.09 714.332 1354.09 714.982Z" fill="#0E2F50"/>
<path d="M292.207 739.735C292.207 741.521 289.54 742.97 286.249 742.97C282.961 742.97 280.294 741.521 280.294 739.735C280.294 737.95 282.961 736.501 286.249 736.501C289.54 736.501 292.207 737.95 292.207 739.735Z" fill="black"/>
<path d="M1034.78 28.1546C1034.78 28.8041 1033.81 29.3307 1032.61 29.3307C1031.42 29.3307 1030.45 28.8041 1030.45 28.1546C1030.45 27.5051 1031.42 26.9785 1032.61 26.9785C1033.81 26.9785 1034.78 27.5051 1034.78 28.1546Z" fill="#0E2F50"/>
<path d="M1260.03 53.3567C1260.03 54.0062 1259.06 54.5328 1257.86 54.5328C1256.67 54.5328 1255.7 54.0062 1255.7 53.3567C1255.7 52.7071 1256.67 52.1807 1257.86 52.1807C1259.06 52.1807 1260.03 52.7071 1260.03 53.3567Z" fill="#0E2F50"/>
<path d="M898.95 56.5906C898.95 58.3768 896.284 59.8248 892.996 59.8248C889.705 59.8248 887.038 58.3768 887.038 56.5906C887.038 54.8045 889.705 53.3564 892.996 53.3564C896.284 53.3564 898.95 54.8045 898.95 56.5906Z" fill="#0E2F50"/>
<path fill-rule="evenodd" clip-rule="evenodd" d="M515.664 0.766602L528.557 14.2661L526.36 14.8848L513.469 1.38536L515.664 0.766602Z" fill="#0E2F50"/>
<path d="M470.425 94.0149C470.425 94.6644 469.454 95.191 468.257 95.191C467.063 95.191 466.092 94.6644 466.092 94.0149C466.092 93.3654 467.063 92.8389 468.257 92.8389C469.454 92.8389 470.425 93.3654 470.425 94.0149Z" fill="#0E2F50"/>
<path d="M602.851 141.422C602.851 142.072 601.88 142.598 600.683 142.598C599.489 142.598 598.518 142.072 598.518 141.422C598.518 140.773 599.489 140.246 600.683 140.246C601.88 140.246 602.851 140.773 602.851 141.422Z" fill="#0E2F50"/>
<path d="M751.366 188.897C751.366 189.547 750.395 190.073 749.198 190.073C748.004 190.073 747.033 189.547 747.033 188.897C747.033 188.247 748.004 187.722 749.198 187.722C750.395 187.722 751.366 188.247 751.366 188.897Z" fill="#0E2F50"/>
<path d="M508.583 289.577C508.583 290.227 507.612 290.753 506.415 290.753C505.221 290.753 504.25 290.227 504.25 289.577C504.25 288.929 505.221 288.401 506.415 288.401C507.612 288.401 508.583 288.929 508.583 289.577Z" fill="#0E2F50"/>
<path d="M116.463 42.9397C116.463 43.5892 115.494 44.1158 114.298 44.1158C113.102 44.1158 112.132 43.5892 112.132 42.9397C112.132 42.2902 113.102 41.7637 114.298 41.7637C115.494 41.7637 116.463 42.2902 116.463 42.9397Z" fill="#0E2F50"/>
<path d="M1354.09 42.9397C1354.09 43.5892 1353.12 44.1158 1351.92 44.1158C1350.73 44.1158 1349.75 43.5892 1349.75 42.9397C1349.75 42.2902 1350.73 41.7637 1351.92 41.7637C1353.12 41.7637 1354.09 42.2902 1354.09 42.9397Z" fill="#0E2F50"/>
<path d="M292.207 67.6933C292.207 69.4795 289.54 70.9275 286.249 70.9275C282.961 70.9275 280.294 69.4795 280.294 67.6933C280.294 65.907 282.961 64.459 286.249 64.459C289.54 64.459 292.207 65.907 292.207 67.6933Z" fill="#0E2F50"/>
</g>
</g>
<defs>
<filter id="filter0_d_84_3487" x="172.664" y="155.625" width="188.005" height="132.762" filterUnits="userSpaceOnUse" color-interpolation-filters="sRGB">
<feFlood flood-opacity="0" result="BackgroundImageFix"/>
<feColorMatrix in="SourceAlpha" type="matrix" values="0 0 0 0 0 0 0 0 0 0 0 0 0 0 0 0 0 0 127 0" result="hardAlpha"/>
<feOffset dy="3"/>
<feGaussianBlur stdDeviation="2.5"/>
<feComposite in2="hardAlpha" operator="out"/>
<feColorMatrix type="matrix" values="0 0 0 0 0.054902 0 0 0 0 0.184314 0 0 0 0 0.313726 0 0 0 1 0"/>
<feBlend mode="normal" in2="BackgroundImageFix" result="effect1_dropShadow_84_3487"/>
<feBlend mode="normal" in="SourceGraphic" in2="effect1_dropShadow_84_3487" result="shape"/>
</filter>
<filter id="filter1_d_84_3487" x="930.663" y="421.625" width="188.006" height="132.762" filterUnits="userSpaceOnUse" color-interpolation-filters="sRGB">
<feFlood flood-opacity="0" result="BackgroundImageFix"/>
<feColorMatrix in="SourceAlpha" type="matrix" values="0 0 0 0 0 0 0 0 0 0 0 0 0 0 0 0 0 0 127 0" result="hardAlpha"/>
<feOffset dy="3"/>
<feGaussianBlur stdDeviation="2.5"/>
<feComposite in2="hardAlpha" operator="out"/>
<feColorMatrix type="matrix" values="0 0 0 0 0.054902 0 0 0 0 0.184314 0 0 0 0 0.313726 0 0 0 1 0"/>
<feBlend mode="normal" in2="BackgroundImageFix" result="effect1_dropShadow_84_3487"/>
<feBlend mode="normal" in="SourceGraphic" in2="effect1_dropShadow_84_3487" result="shape"/>
</filter>
<filter id="filter2_d_84_3487" x="225.703" y="302.701" width="192.676" height="126.126" filterUnits="userSpaceOnUse" color-interpolation-filters="sRGB">
<feFlood flood-opacity="0" result="BackgroundImageFix"/>
<feColorMatrix in="SourceAlpha" type="matrix" values="0 0 0 0 0 0 0 0 0 0 0 0 0 0 0 0 0 0 127 0" result="hardAlpha"/>
<feOffset dy="3"/>
<feGaussianBlur stdDeviation="2.5"/>
<feComposite in2="hardAlpha" operator="out"/>
<feColorMatrix type="matrix" values="0 0 0 0 0.054902 0 0 0 0 0.184314 0 0 0 0 0.313726 0 0 0 1 0"/>
<feBlend mode="normal" in2="BackgroundImageFix" result="effect1_dropShadow_84_3487"/>
<feBlend mode="normal" in="SourceGraphic" in2="effect1_dropShadow_84_3487" result="shape"/>
</filter>
<filter id="filter3_d_84_3487" x="1142.7" y="406.701" width="192.676" height="126.126" filterUnits="userSpaceOnUse" color-interpolation-filters="sRGB">
<feFlood flood-opacity="0" result="BackgroundImageFix"/>
<feColorMatrix in="SourceAlpha" type="matrix" values="0 0 0 0 0 0 0 0 0 0 0 0 0 0 0 0 0 0 127 0" result="hardAlpha"/>
<feOffset dy="3"/>
<feGaussianBlur stdDeviation="2.5"/>
<feComposite in2="hardAlpha" operator="out"/>
<feColorMatrix type="matrix" values="0 0 0 0 0.054902 0 0 0 0 0.184314 0 0 0 0 0.313726 0 0 0 1 0"/>
<feBlend mode="normal" in2="BackgroundImageFix" result="effect1_dropShadow_84_3487"/>
<feBlend mode="normal" in="SourceGraphic" in2="effect1_dropShadow_84_3487" result="shape"/>
</filter>
<filter id="filter4_d_84_3487" x="38.7695" y="495.098" width="211.338" height="140.324" filterUnits="userSpaceOnUse" color-interpolation-filters="sRGB">
<feFlood flood-opacity="0" result="BackgroundImageFix"/>
<feColorMatrix in="SourceAlpha" type="matrix" values="0 0 0 0 0 0 0 0 0 0 0 0 0 0 0 0 0 0 127 0" result="hardAlpha"/>
<feOffset dy="3"/>
<feGaussianBlur stdDeviation="2.5"/>
<feComposite in2="hardAlpha" operator="out"/>
<feColorMatrix type="matrix" values="0 0 0 0 0.054902 0 0 0 0 0.184314 0 0 0 0 0.313726 0 0 0 1 0"/>
<feBlend mode="normal" in2="BackgroundImageFix" result="effect1_dropShadow_84_3487"/>
<feBlend mode="normal" in="SourceGraphic" in2="effect1_dropShadow_84_3487" result="shape"/>
</filter>
<filter id="filter5_d_84_3487" x="984.771" y="254.098" width="211.337" height="140.324" filterUnits="userSpaceOnUse" color-interpolation-filters="sRGB">
<feFlood flood-opacity="0" result="BackgroundImageFix"/>
<feColorMatrix in="SourceAlpha" type="matrix" values="0 0 0 0 0 0 0 0 0 0 0 0 0 0 0 0 0 0 127 0" result="hardAlpha"/>
<feOffset dy="3"/>
<feGaussianBlur stdDeviation="2.5"/>
<feComposite in2="hardAlpha" operator="out"/>
<feColorMatrix type="matrix" values="0 0 0 0 0.054902 0 0 0 0 0.184314 0 0 0 0 0.313726 0 0 0 1 0"/>
<feBlend mode="normal" in2="BackgroundImageFix" result="effect1_dropShadow_84_3487"/>
<feBlend mode="normal" in="SourceGraphic" in2="effect1_dropShadow_84_3487" result="shape"/>
</filter>
<filter id="filter6_d_84_3487" x="96" y="219" width="35" height="35" filterUnits="userSpaceOnUse" color-interpolation-filters="sRGB">
<feFlood flood-opacity="0" result="BackgroundImageFix"/>
<feColorMatrix in="SourceAlpha" type="matrix" values="0 0 0 0 0 0 0 0 0 0 0 0 0 0 0 0 0 0 127 0" result="hardAlpha"/>
<feOffset dy="3"/>
<feGaussianBlur stdDeviation="2.5"/>
<feComposite in2="hardAlpha" operator="out"/>
<feColorMatrix type="matrix" values="0 0 0 0 0.498039 0 0 0 0 0.521569 0 0 0 0 0.533333 0 0 0 1 0"/>
<feBlend mode="normal" in2="BackgroundImageFix" result="effect1_dropShadow_84_3487"/>
<feBlend mode="normal" in="SourceGraphic" in2="effect1_dropShadow_84_3487" result="shape"/>
</filter>
<filter id="filter7_d_84_3487" x="199" y="327" width="35" height="35" filterUnits="userSpaceOnUse" color-interpolation-filters="sRGB">
<feFlood flood-opacity="0" result="BackgroundImageFix"/>
<feColorMatrix in="SourceAlpha" type="matrix" values="0 0 0 0 0 0 0 0 0 0 0 0 0 0 0 0 0 0 127 0" result="hardAlpha"/>
<feOffset dy="3"/>
<feGaussianBlur stdDeviation="2.5"/>
<feComposite in2="hardAlpha" operator="out"/>
<feColorMatrix type="matrix" values="0 0 0 0 0.498039 0 0 0 0 0.521569 0 0 0 0 0.533333 0 0 0 1 0"/>
<feBlend mode="normal" in2="BackgroundImageFix" result="effect1_dropShadow_84_3487"/>
<feBlend mode="normal" in="SourceGraphic" in2="effect1_dropShadow_84_3487" result="shape"/>
</filter>
<filter id="filter8_d_84_3487" x="71" y="471" width="35" height="35" filterUnits="userSpaceOnUse" color-interpolation-filters="sRGB">
<feFlood flood-opacity="0" result="BackgroundImageFix"/>
<feColorMatrix in="SourceAlpha" type="matrix" values="0 0 0 0 0 0 0 0 0 0 0 0 0 0 0 0 0 0 127 0" result="hardAlpha"/>
<feOffset dy="3"/>
<feGaussianBlur stdDeviation="2.5"/>
<feComposite in2="hardAlpha" operator="out"/>
<feColorMatrix type="matrix" values="0 0 0 0 0.498039 0 0 0 0 0.521569 0 0 0 0 0.533333 0 0 0 1 0"/>
<feBlend mode="normal" in2="BackgroundImageFix" result="effect1_dropShadow_84_3487"/>
<feBlend mode="normal" in="SourceGraphic" in2="effect1_dropShadow_84_3487" result="shape"/>
</filter>
<filter id="filter9_d_84_3487" x="71" y="707" width="35" height="35" filterUnits="userSpaceOnUse" color-interpolation-filters="sRGB">
<feFlood flood-opacity="0" result="BackgroundImageFix"/>
<feColorMatrix in="SourceAlpha" type="matrix" values="0 0 0 0 0 0 0 0 0 0 0 0 0 0 0 0 0 0 127 0" result="hardAlpha"/>
<feOffset dy="3"/>
<feGaussianBlur stdDeviation="2.5"/>
<feComposite in2="hardAlpha" operator="out"/>
<feColorMatrix type="matrix" values="0 0 0 0 0.498039 0 0 0 0 0.521569 0 0 0 0 0.533333 0 0 0 1 0"/>
<feBlend mode="normal" in2="BackgroundImageFix" result="effect1_dropShadow_84_3487"/>
<feBlend mode="normal" in="SourceGraphic" in2="effect1_dropShadow_84_3487" result="shape"/>
</filter>
<filter id="filter10_d_84_3487" x="358" y="669" width="35" height="35" filterUnits="userSpaceOnUse" color-interpolation-filters="sRGB">
<feFlood flood-opacity="0" result="BackgroundImageFix"/>
<feColorMatrix in="SourceAlpha" type="matrix" values="0 0 0 0 0 0 0 0 0 0 0 0 0 0 0 0 0 0 127 0" result="hardAlpha"/>
<feOffset dy="3"/>
<feGaussianBlur stdDeviation="2.5"/>
<feComposite in2="hardAlpha" operator="out"/>
<feColorMatrix type="matrix" values="0 0 0 0 0.498039 0 0 0 0 0.521569 0 0 0 0 0.533333 0 0 0 1 0"/>
<feBlend mode="normal" in2="BackgroundImageFix" result="effect1_dropShadow_84_3487"/>
<feBlend mode="normal" in="SourceGraphic" in2="effect1_dropShadow_84_3487" result="shape"/>
</filter>
<filter id="filter11_d_84_3487" x="978" y="700" width="35" height="35" filterUnits="userSpaceOnUse" color-interpolation-filters="sRGB">
<feFlood flood-opacity="0" result="BackgroundImageFix"/>
<feColorMatrix in="SourceAlpha" type="matrix" values="0 0 0 0 0 0 0 0 0 0 0 0 0 0 0 0 0 0 127 0" result="hardAlpha"/>
<feOffset dy="3"/>
<feGaussianBlur stdDeviation="2.5"/>
<feComposite in2="hardAlpha" operator="out"/>
<feColorMatrix type="matrix" values="0 0 0 0 0.498039 0 0 0 0 0.521569 0 0 0 0 0.533333 0 0 0 1 0"/>
<feBlend mode="normal" in2="BackgroundImageFix" result="effect1_dropShadow_84_3487"/>
<feBlend mode="normal" in="SourceGraphic" in2="effect1_dropShadow_84_3487" result="shape"/>
</filter>
<filter id="filter12_d_84_3487" x="1193" y="632" width="35" height="35" filterUnits="userSpaceOnUse" color-interpolation-filters="sRGB">
<feFlood flood-opacity="0" result="BackgroundImageFix"/>
<feColorMatrix in="SourceAlpha" type="matrix" values="0 0 0 0 0 0 0 0 0 0 0 0 0 0 0 0 0 0 127 0" result="hardAlpha"/>
<feOffset dy="3"/>
<feGaussianBlur stdDeviation="2.5"/>
<feComposite in2="hardAlpha" operator="out"/>
<feColorMatrix type="matrix" values="0 0 0 0 0.498039 0 0 0 0 0.521569 0 0 0 0 0.533333 0 0 0 1 0"/>
<feBlend mode="normal" in2="BackgroundImageFix" result="effect1_dropShadow_84_3487"/>
<feBlend mode="normal" in="SourceGraphic" in2="effect1_dropShadow_84_3487" result="shape"/>
</filter>
<filter id="filter13_d_84_3487" x="1224" y="344" width="35" height="35" filterUnits="userSpaceOnUse" color-interpolation-filters="sRGB">
<feFlood flood-opacity="0" result="BackgroundImageFix"/>
<feColorMatrix in="SourceAlpha" type="matrix" values="0 0 0 0 0 0 0 0 0 0 0 0 0 0 0 0 0 0 127 0" result="hardAlpha"/>
<feOffset dy="3"/>
<feGaussianBlur stdDeviation="2.5"/>
<feComposite in2="hardAlpha" operator="out"/>
<feColorMatrix type="matrix" values="0 0 0 0 0.498039 0 0 0 0 0.521569 0 0 0 0 0.533333 0 0 0 1 0"/>
<feBlend mode="normal" in2="BackgroundImageFix" result="effect1_dropShadow_84_3487"/>
<feBlend mode="normal" in="SourceGraphic" in2="effect1_dropShadow_84_3487" result="shape"/>
</filter>
<filter id="filter14_d_84_3487" x="1050" y="205" width="35" height="35" filterUnits="userSpaceOnUse" color-interpolation-filters="sRGB">
<feFlood flood-opacity="0" result="BackgroundImageFix"/>
<feColorMatrix in="SourceAlpha" type="matrix" values="0 0 0 0 0 0 0 0 0 0 0 0 0 0 0 0 0 0 127 0" result="hardAlpha"/>
<feOffset dy="3"/>
<feGaussianBlur stdDeviation="2.5"/>
<feComposite in2="hardAlpha" operator="out"/>
<feColorMatrix type="matrix" values="0 0 0 0 0.498039 0 0 0 0 0.521569 0 0 0 0 0.533333 0 0 0 1 0"/>
<feBlend mode="normal" in2="BackgroundImageFix" result="effect1_dropShadow_84_3487"/>
<feBlend mode="normal" in="SourceGraphic" in2="effect1_dropShadow_84_3487" result="shape"/>
</filter>
<filter id="filter15_d_84_3487" x="1193" y="86" width="35" height="35" filterUnits="userSpaceOnUse" color-interpolation-filters="sRGB">
<feFlood flood-opacity="0" result="BackgroundImageFix"/>
<feColorMatrix in="SourceAlpha" type="matrix" values="0 0 0 0 0 0 0 0 0 0 0 0 0 0 0 0 0 0 127 0" result="hardAlpha"/>
<feOffset dy="3"/>
<feGaussianBlur stdDeviation="2.5"/>
<feComposite in2="hardAlpha" operator="out"/>
<feColorMatrix type="matrix" values="0 0 0 0 0.498039 0 0 0 0 0.521569 0 0 0 0 0.533333 0 0 0 1 0"/>
<feBlend mode="normal" in2="BackgroundImageFix" result="effect1_dropShadow_84_3487"/>
<feBlend mode="normal" in="SourceGraphic" in2="effect1_dropShadow_84_3487" result="shape"/>
</filter>
<clipPath id="clip0_84_3487">
<rect width="1366" height="768" fill="white"/>
</clipPath>
<clipPath id="clip1_84_3487">
<rect width="1366" height="768" fill="white"/>
</clipPath>
</defs>
</svg>
