<svg width="170" height="170" viewBox="0 0 170 170" fill="none" xmlns="http://www.w3.org/2000/svg">
<path d="M44.0738 71.1098C39.7014 74.5463 39.84 66.1594 41.8876 66.8938C42.3526 67.0638 44.0509 68.7638 44.3866 67.6741C44.5328 67.2023 43.2935 61.8941 42.8252 60.8027C46.186 58.2182 48.6894 54.6804 50.0085 50.6511C50.0085 50.1828 48.7599 50.8075 48.7599 50.8075C49.015 50.1627 49.1216 49.4686 49.0718 48.7769C49.0445 48.7406 49.0091 48.7112 48.9685 48.691C48.9278 48.6707 48.8831 48.6602 48.8377 48.6602C48.7922 48.6602 48.7475 48.6707 48.7068 48.691C48.6662 48.7112 48.6308 48.7406 48.6035 48.7769C47.8223 50.3392 45.9489 50.6469 44.3866 50.8075C42.5166 50.8075 35.9529 49.8725 33.6103 50.9639C32.5172 51.4323 31.2677 52.9937 31.7403 55.8089C31.7403 56.1217 32.2087 57.996 32.5206 58.1515C33.7293 58.147 34.9166 58.4701 35.9563 59.0865C36.1127 59.2421 35.9563 59.3985 35.8008 59.3985C35.176 59.3985 34.7068 59.2421 34.2385 59.2421C32.0523 59.0865 28.9285 59.0865 28.6166 61.8975C28.3038 64.0837 29.0849 66.2707 29.8661 68.145C30.8011 70.4867 35.9563 78.1401 36.5811 78.4521C36.7998 78.4565 37.0179 78.4261 37.2271 78.362C37.3894 80.0059 37.6878 81.643 37.987 83.1373C38.1425 84.0723 39.0801 84.2304 38.922 83.1373C38.4774 81.507 38.1731 79.8767 37.743 78.2464C39.9675 77.7262 44.6807 76.3951 45.6378 75.7975C45.9489 75.6394 44.5396 70.6414 44.0738 71.1098ZM45.7925 53.1501C45.8731 53.1566 45.9488 53.1915 46.006 53.2487C46.0631 53.3058 46.0981 53.3815 46.1045 53.4621C46.1045 54.4251 43.1006 54.9921 42.9807 55.0244C42.8252 55.0244 42.6688 54.7116 42.8252 54.7116C42.9986 54.5373 45.3641 53.0073 45.7925 53.1501ZM37.8246 72.5157C37.8251 72.5364 37.8214 72.5569 37.8137 72.5761C37.806 72.5953 37.7945 72.6127 37.7799 72.6273C37.7652 72.6419 37.7478 72.6534 37.7286 72.6611C37.7094 72.6688 37.6889 72.6726 37.6682 72.6721C37.1999 72.8285 36.7332 72.3593 36.5751 72.0473C36.2406 71.6485 35.9284 71.2313 35.6401 70.7978C35.7104 72.0454 36.0282 73.2665 36.5751 74.3899C36.6184 74.4941 36.6267 74.6095 36.5987 74.7188C36.5707 74.8281 36.508 74.9253 36.4199 74.9958C36.3319 75.0663 36.2233 75.1062 36.1105 75.1097C35.9978 75.1131 35.887 75.0797 35.7948 75.0147C34.7334 73.8999 33.839 72.6373 33.1394 71.2662C32.3897 69.8441 31.578 68.4552 31.7344 66.7374C31.7344 66.581 32.0463 66.4246 32.0463 66.7374C32.4115 68.1955 33.0457 69.5725 33.9163 70.7978C34.2274 71.405 34.5969 71.9803 35.0196 72.5157C34.73 71.5 34.6765 70.4315 34.8632 69.3919C34.8669 69.3001 34.9015 69.2122 34.9612 69.1423C35.0209 69.0724 35.1024 69.0247 35.1926 69.0067C35.2827 68.9888 35.3763 69.0016 35.4583 69.0433C35.5402 69.085 35.6058 69.153 35.6444 69.2364C36.3516 70.6584 38.0312 71.6997 37.8246 72.5157ZM34.5479 52.8373C34.3864 52.9138 34.2521 52.8144 34.3915 52.6818C34.971 52.2013 35.6493 51.8542 36.3781 51.6653C37.1069 51.4764 37.8683 51.4502 38.6083 51.5887C39.8486 51.7815 41.1009 51.8857 42.356 51.9006C42.441 51.9006 44.6646 51.6227 43.7619 52.5254C42.7028 53.3193 40.3304 52.9325 39.0767 52.6818C37.5893 52.2481 36.002 52.3026 34.5479 52.8373Z" fill="#F5DEB3"/>
<path d="M52.3521 67.6733C52.7487 67.3552 53.0674 66.9507 53.2838 66.4906C53.5002 66.0306 53.6086 65.5271 53.6007 65.0188C53.6007 62.9193 51.9007 61.6077 50.4778 59.8644C49.706 58.92 48.76 58.1465 47.8224 57.2098C47.666 57.0534 47.3541 57.2098 47.5105 57.5218C48.1352 58.3029 48.76 59.2405 49.3805 60.0208C51.2182 62.3158 52.2705 63.4208 52.5034 64.706C52.5128 65.5292 52.2968 66.3393 51.8786 67.0486C51.8398 66.8137 51.7311 66.596 51.5667 66.4238C51.4103 66.2683 51.202 66.2793 51.2539 66.5802C51.6627 68.9339 52.1889 71.5782 51.4103 74.0764C51.1827 74.9442 50.7547 75.7465 50.1608 76.419C49.536 77.2001 48.5993 77.5129 47.8182 78.1377C47.6618 78.2932 47.6618 78.606 47.9746 78.606C49.0677 78.7616 50.0044 77.9813 50.7855 77.3565C51.5584 76.5566 52.1463 75.5967 52.5076 74.5447C53.1609 72.2924 53.1066 69.8938 52.3521 67.6733Z" fill="#F5DEB3"/>
<path d="M78.2776 83.9166C80.893 83.1686 82.5055 82.1146 87.648 79.5434C89.6115 78.8889 90.5456 78.5004 91.3956 76.7324C98.6002 61.7393 99.508 51.9277 100.3 49.5554C100.48 48.6305 100.584 47.6923 100.61 46.7504C100.61 46.2812 99.9857 46.2812 99.8293 46.594C99.4281 48.242 99.116 49.9104 98.8943 51.592C97.4198 58.8725 95.2224 65.9877 92.3349 72.8318C91.5699 74.5573 91.0854 77.0478 89.3675 77.9853C87.6521 78.9296 85.8785 79.7642 84.0576 80.4843C82.1663 81.3862 80.3091 82.5141 78.2776 83.4517C77.8084 83.6038 77.9648 83.9166 78.2776 83.9166Z" fill="#F5DEB3"/>
<path d="M99.517 44.2471C98.582 43.466 97.6334 42.854 96.5496 42.0609C95.9243 41.7234 95.3887 41.2414 94.9873 40.655C94.7947 40.2946 94.694 39.8923 94.694 39.4837C94.694 39.0751 94.7947 38.6728 94.9873 38.3124C95.2858 37.4522 95.6513 36.6166 96.0804 35.8134C96.3932 35.0331 96.8616 34.252 97.1744 33.4708C97.3299 33.1589 96.8616 32.8461 96.5496 33.1589C95.9906 33.8818 95.5187 34.6681 95.1437 35.5015C94.519 36.9065 93.5491 38.6286 93.7378 40.1867C93.8517 40.7131 94.0777 41.2088 94.4004 41.64C94.7231 42.0713 95.1349 42.4279 95.6078 42.6857C96.7128 43.4507 97.9504 44.2471 99.0435 44.8719C99.517 44.8719 99.8289 44.5591 99.517 44.2471Z" fill="#F5DEB3"/>
<path d="M98.1113 36.4382C98.6256 33.6102 98.7522 30.4083 99.0463 28.6292C99.2027 27.6942 99.2027 26.7592 99.3591 25.8183C99.5155 25.1935 99.671 25.9747 99.8274 26.1311C99.9838 26.7558 100.291 27.3814 100.452 28.1609C100.906 30.3505 101.077 32.6905 101.387 34.8759C101.397 34.9724 101.443 35.0618 101.515 35.1268C101.587 35.1918 101.681 35.2278 101.778 35.2278C101.875 35.2278 101.969 35.1918 102.041 35.1268C102.113 35.0618 102.158 34.9724 102.168 34.8759C102.278 31.6286 101.748 28.3914 100.607 25.3491C100.555 25.0937 100.419 24.863 100.221 24.6937C100.023 24.5243 99.7741 24.4259 99.5138 24.4141C98.4207 24.4141 98.5788 26.2841 98.4207 26.9122C98.1044 29.9736 97.9478 33.0494 97.9515 36.1271C97.6429 36.5946 97.9549 36.5946 98.1113 36.4382Z" fill="#F5DEB3"/>
<path d="M106.388 31.5969C107 32.1321 107.436 32.8401 107.638 33.6276C107.794 34.4006 107.794 35.1971 107.638 35.9702C107.56 36.0855 107.518 36.2215 107.518 36.3608C107.518 36.5 107.56 36.636 107.638 36.7513C107.794 36.9069 107.95 36.7513 108.106 36.5949C108.718 35.9829 108.633 34.3314 108.419 33.4712C108.291 32.97 108.057 32.502 107.734 32.098C107.411 31.6941 107.005 31.3637 106.545 31.1286C106.322 31.0495 106.232 31.4414 106.388 31.5969Z" fill="#F5DEB3"/>
<path d="M109.981 43.4664C110.5 42.3762 110.868 41.2203 111.074 40.0307C111.358 37.9966 111.387 35.3455 109.981 33.6276C109.825 33.3148 109.356 33.6276 109.513 33.9396C110.292 35.8188 110.455 37.8962 109.981 39.8743C109.668 41.7443 108.536 43.293 107.795 45.0287C107.464 45.8022 108.581 54.3982 108.888 58.7715C109.206 63.3003 109.2 67.8299 109.2 72.3587C109.2 76.732 108.893 81.1052 108.575 85.634C108.451 87.8025 108.084 89.9502 107.482 92.0371C106.954 93.593 106.041 94.9899 104.828 96.0975C103.293 97.6694 101.561 99.0345 99.6731 100.158C98.5834 100.788 97.6433 101.407 96.5502 102.028C95.452 102.613 94.4068 103.292 93.4265 104.059C93.1137 104.214 93.4265 104.683 93.7384 104.527C95.8418 103.811 97.8383 102.813 99.6731 101.56C101.388 100.503 103.008 99.3008 104.518 97.9675C105.809 96.8459 106.916 95.5285 107.798 94.0635C108.698 92.2049 109.228 90.1894 109.36 88.1288C111.067 75.746 110.352 58.1527 108.425 45.8047C109.2 45.497 109.825 43.9347 109.981 43.4664Z" fill="#F5DEB3"/>
<path d="M7.8421 128.895C7.6211 132.21 5.8174 140.49 5.03115 143.731C4.32905 146.625 4.25 146.455 4.25 147.167C4.25 147.479 4.56195 147.636 4.87475 147.323C5.44509 146.48 5.81866 145.519 5.96785 144.512C6.4226 142.441 8.46685 132.16 8.46685 128.895C8.31045 128.426 7.8421 128.426 7.8421 128.895Z" fill="#F5DEB3"/>
<path d="M102.485 30.5037C102.797 30.972 103.265 31.2848 103.42 31.7532C103.865 32.7326 104.079 33.8015 104.044 34.8769C104.044 35.9624 105.266 34.9619 104.826 33.0069C104.669 32.2213 104.35 31.4769 103.891 30.8207C103.544 30.4248 103.119 30.1063 102.641 29.8857C102.485 30.0353 102.328 30.3447 102.485 30.5037Z" fill="#F5DEB3"/>
<path d="M61.5667 119.211C61.2539 119.368 61.0958 118.895 61.4103 118.743C63.7384 117.618 92.8016 107.03 93.1153 106.874C91.8666 103.593 82.4954 79.2307 82.1834 77.9812C82.1554 77.9073 82.1123 77.8399 82.0569 77.7834C82.0015 77.727 81.935 77.6826 81.8616 77.6532C81.7881 77.6238 81.7094 77.61 81.6303 77.6126C81.5513 77.6152 81.4736 77.6342 81.4023 77.6684C77.9666 80.011 57.1951 87.3516 56.7268 87.508C51.5715 82.0417 35.9553 81.2597 29.3942 84.2279C29.2935 84.258 29.2053 84.3197 29.1425 84.4039C29.0798 84.4881 29.0459 84.5904 29.0459 84.6954C29.0459 84.8004 29.0798 84.9027 29.1425 84.9869C29.2053 85.0711 29.2935 85.1328 29.3942 85.1629C30.9446 85.6423 31.9952 87.763 32.206 87.9738C26.5832 89.8438 21.3795 92.9336 17.841 97.6562C13.2833 103.735 12.826 107.664 5.65964 130.765C5.64914 130.85 5.65765 130.936 5.68455 131.018C5.71145 131.099 5.75608 131.173 5.81519 131.235C9.25174 131.859 12.843 132.015 16.2795 132.64C16.0075 125.036 16.1435 116.428 18.1495 109.057C18.9612 105.677 20.2219 102.421 21.898 99.3749C22.0544 99.2185 22.3664 99.3749 22.2108 99.5304C21.3031 101.368 20.6212 103.309 20.1802 105.31C16.4359 116.542 17.7466 132.505 17.994 144.353C18.0297 146.071 18.1495 147.79 18.3059 149.508C20.0244 150.043 21.816 150.307 23.6159 150.288C25.1782 150.288 35.3255 149.62 38.921 149.353C46.4112 148.794 68.5945 147.792 72.343 148.104C72.4646 148.096 72.5793 148.044 72.6655 147.958C72.7517 147.872 72.8035 147.757 72.8113 147.635C72.8895 143.572 74.5292 117.65 74.5292 115.93C70.1431 116.748 65.8135 117.844 61.5667 119.211ZM50.3203 103.75C50.9059 107.002 52.0701 110.123 53.7577 112.965C53.8189 113.018 53.865 113.086 53.8912 113.162C53.9174 113.239 53.9228 113.321 53.9069 113.4C53.891 113.48 53.8544 113.553 53.8007 113.614C53.747 113.675 53.6782 113.72 53.6013 113.745C53.2894 113.745 52.9766 113.12 52.821 112.965C52.1963 112.03 51.5715 110.934 50.9468 109.841C50.0066 107.594 49.3775 105.23 49.0768 102.813C48.5022 98.2308 50.0968 93.6773 51.8877 91.5685C52.0305 91.3985 54.0748 89.5378 53.9184 90.1626C53.762 90.6309 53.1228 91.0857 52.8253 91.4121C52.0716 92.343 51.4899 93.4008 51.1074 94.5358C50.0416 97.485 49.7702 100.663 50.3203 103.75ZM45.4753 87.3516C46.481 87.4388 47.4225 87.8819 48.1307 88.6011C48.1601 88.6399 48.1796 88.6853 48.1875 88.7332C48.1953 88.7812 48.1914 88.8304 48.176 88.8766C48.1606 88.9227 48.1342 88.9644 48.0991 88.998C48.0639 89.0316 48.0211 89.0562 47.9743 89.0695C45.602 89.0695 45.8621 87.82 35.9485 87.82C35.6366 87.82 35.793 87.508 35.9485 87.508C38.1262 87.3406 43.2415 86.9785 45.4804 87.3516H45.4753Z" fill="#D6EAF8"/>
<path d="M113.26 19.8841C109.782 19.8841 90.6897 19.556 87.6476 19.8841C85.9323 20.0694 84.0555 20.3525 82.8026 21.7541C82.1108 22.4814 81.6725 23.4128 81.5531 24.4095C81.3899 26.4363 81.3899 28.4729 81.5531 30.4998C81.6976 32.2193 81.6891 33.9559 83.1145 35.3448C85.8881 38.0393 90.609 36.6725 94.0472 36.7507C94.1094 36.7507 94.1691 36.7259 94.2131 36.6819C94.2571 36.6379 94.2818 36.5783 94.2818 36.5161C94.2818 36.4538 94.2571 36.3942 94.2131 36.3502C94.1691 36.3062 94.1094 36.2815 94.0472 36.2815C92.6413 36.2815 91.0799 36.1259 89.674 36.1259C86.9183 36.1259 84.3292 36.0554 83.1145 33.6269C82.3342 32.0655 82.4898 30.0348 82.4898 28.317C82.4898 26.7555 82.3342 24.5685 83.1145 23.1634C83.8948 21.7584 85.6169 21.1659 87.1758 20.9764C89.3019 20.7436 91.4402 20.6395 93.5789 20.6644C117.257 20.6644 118.732 20.5956 119.347 20.6644C120.131 20.8016 120.88 21.0932 121.55 21.5222C122.22 21.9512 122.799 22.509 123.252 23.1634C124.163 24.7167 124.494 26.5426 124.187 28.317C124.148 28.5482 123.971 32.1539 123.093 33.6269C121.738 35.9024 116.647 35.9746 115.443 36.1259H112.632C112.476 36.1259 111.851 36.1259 112.007 36.4379H112.163C114.501 36.6525 116.853 36.6525 119.191 36.4379C120.753 36.2815 122.315 35.9695 123.252 34.72C124.187 33.6269 124.323 32.2185 124.501 30.816C124.674 29.7302 124.779 28.6347 124.814 27.5358C124.892 26.5482 124.892 25.556 124.814 24.5685C124.611 23.7088 124.227 22.9022 123.689 22.2021C123.15 21.502 122.469 20.9246 121.69 20.508C120.944 20.134 118.473 19.8841 113.26 19.8841Z" fill="#F9F9F9"/>
<path d="M139.81 69.2357C143.236 69.5607 146.683 69.6127 150.117 69.3913C151.393 69.3985 152.661 69.1872 153.866 68.7665C154.497 68.5073 155.071 68.1254 155.553 67.6428C156.036 67.1603 156.418 66.5868 156.677 65.9556C156.929 65.1479 157.035 64.3015 156.989 63.4566C156.989 61.5772 157.033 61.2466 156.833 60.6456C156.833 60.4892 156.521 60.4892 156.521 60.6456C156.308 61.3539 156.255 62.1005 156.364 62.8318C156.346 63.6218 156.242 64.4074 156.052 65.1744C155.902 65.7905 155.612 66.3641 155.206 66.8514C154.8 67.3387 154.288 67.7268 153.71 67.9862C152.543 68.3451 151.336 68.555 150.117 68.611C148.868 68.611 147.462 68.7665 146.213 68.7665C144.183 68.7665 141.997 68.7665 139.966 68.9229C139.655 69.0793 139.655 69.2357 139.81 69.2357Z" fill="#F9F9F9"/>
<path d="M103.422 102.033C109.232 102.159 125.57 102.555 129.19 102.189C130.907 102.019 132.646 101.905 134.035 100.94C135.779 99.7259 136.066 97.8159 136.066 95.9417C136.444 89.8837 136.519 85.5938 130.443 85.1662C127.324 84.9461 124.197 85.1662 120.916 85.1662C112.649 85.1662 113.181 85.3218 111.702 85.3218C111.64 85.3218 111.58 85.3465 111.536 85.3905C111.492 85.4345 111.468 85.4941 111.468 85.5564C111.468 85.6186 111.492 85.6782 111.536 85.7222C111.58 85.7662 111.64 85.791 111.702 85.791C112.327 85.791 113.42 85.9338 114.201 85.9465C118.888 86.0247 123.571 85.6439 128.257 85.9465C130.755 86.108 134.065 86.0936 134.972 89.0703C135.779 91.7172 135.593 95.3169 135.128 97.9723C134.499 101.564 129.036 101.379 126.225 101.408C118.575 101.486 111.077 101.252 103.424 101.564C103.265 101.721 103.265 102.029 103.422 102.033Z" fill="#F9F9F9"/>
<path d="M160.425 89.3815C156.958 89.0355 137.9 89.3194 137.467 89.5379C137.155 89.6943 137.623 98.9083 137.936 98.9083C141.846 98.6286 160.631 98.468 162.143 98.128C164.028 97.703 165.11 95.629 165.11 93.7548C165.266 91.2558 162.768 89.6943 160.425 89.3815Z" fill="#F5DEB3"/>
<path d="M95.6118 56.8986C91.2538 56.4554 86.8714 56.2986 82.4929 56.4294C80.3067 56.4294 78.1205 56.4294 75.9343 56.5858C74.8386 56.5598 73.7424 56.6121 72.6542 56.7422C71.6104 56.7094 70.5658 56.7615 69.5304 56.8977C68.6615 57.0967 67.8592 57.518 67.2022 58.1205C66.5452 58.7229 66.0561 59.4858 65.7828 60.3343C65.158 61.8957 65.9434 63.6085 67.1878 64.7067C68.5958 65.8416 70.3821 66.4 72.1858 66.269C80.135 66.269 85.3294 66.3225 93.4256 65.7998C93.7376 65.7998 93.7376 65.175 93.4256 65.3314C87.2372 65.698 81.0341 65.7502 74.8404 65.4878C73.1225 65.4878 71.1004 65.6204 69.3749 65.0195C67.9758 64.5316 66.4075 63.1495 66.4075 61.4274C66.4799 60.618 66.8073 59.8525 67.3425 59.2412C67.8381 58.4534 68.6237 57.8922 69.5296 57.6789C71.4302 57.3627 73.3971 57.684 75.6207 57.3669C79.4669 57.3669 72.7205 57.2105 95.7657 57.2105C95.7682 57.1255 95.7682 57.0541 95.6118 56.8986Z" fill="#F9F9F9"/>
<path d="M163.237 24.4136C161.683 23.4599 159.8 23.6299 157.93 23.6299C127.572 23.6299 126.07 23.7481 126.07 24.4111C126.07 27.1248 125.913 29.8362 125.601 32.532C125.542 32.5704 125.495 32.6267 125.469 32.6928C125.443 32.7588 125.438 32.8315 125.455 32.9004C125.473 32.9693 125.511 33.0311 125.565 33.0771C125.62 33.1231 125.687 33.1509 125.758 33.1567C134.52 33.6574 145.548 33.1899 159.18 33.0003C160.585 32.9808 162.147 33.0003 163.396 32.0653C166.475 30.3534 166.646 26.5012 163.237 24.4136Z" fill="#F5DEB3"/>
<path d="M164.174 58.3032C162.769 56.8981 157.614 56.5853 157.614 57.2101C157.614 59.7091 157.614 65.4874 157.927 65.7993C158.344 66.0662 158.842 66.177 159.332 66.1121C160.331 66.1557 161.331 66.0503 162.299 65.7993C163.083 65.5837 163.798 65.1681 164.373 64.5932C164.948 64.0184 165.364 63.3039 165.58 62.52C165.672 61.7569 165.594 60.9828 165.351 60.2535C165.108 59.5243 164.706 58.8581 164.174 58.3032Z" fill="#F5DEB3"/>
<path d="M156.364 55.6489C153.814 51.8239 148.512 52.6815 144.964 52.6815C142.934 52.6815 140.747 52.6815 138.717 52.5251C125.737 52.5251 119.592 51.857 117.009 53.1499C116.469 53.3322 115.97 53.6191 115.541 53.9942C115.113 54.3694 114.762 54.8253 114.51 55.3361C114.275 55.7725 114.112 56.2433 114.025 56.7309C111.886 56.7267 110.824 56.6791 110.605 56.9009V57.3693C110.819 57.5644 111.097 57.6753 111.387 57.6812C112.912 57.6812 113.562 57.7271 113.901 57.7322C113.848 58.5346 113.885 59.3353 113.885 60.0272C113.761 61.9654 113.912 63.9113 114.334 65.8072C111.691 65.8072 111.478 65.7613 111.074 65.9636L111.095 66.5884C111.18 66.6734 110.702 66.5884 114.623 66.5884C114.847 67.1168 115.173 67.5958 115.582 67.9979C115.991 68.3999 116.476 68.717 117.009 68.931C118.695 69.4928 119.774 69.3993 127.004 69.3993C133.161 69.3993 137.204 69.2293 138.092 69.2438C138.154 69.2438 138.214 69.2191 138.258 69.1751C138.302 69.1311 138.327 69.0714 138.327 69.0092C138.327 68.9469 138.302 68.8873 138.258 68.8433C138.214 68.7993 138.154 68.7746 138.092 68.7746C137.157 68.7746 136.062 68.619 135.125 68.619H125.442C122.787 68.619 119.195 69.2438 116.852 67.9943C116.195 67.5851 115.66 67.0067 115.303 66.3198C114.945 65.6328 114.78 64.8624 114.822 64.0894C114.666 61.7468 114.354 58.6239 114.978 56.2804C115.194 55.6704 115.572 55.1307 116.072 54.719C118.177 52.6135 122.731 53.1575 148.712 53.1575C150.742 53.1575 152.772 53.1575 154.335 54.2506C155.081 54.76 155.668 55.4704 156.027 56.2996C156.386 57.1288 156.503 58.0429 156.364 58.9358C156.521 59.0922 156.521 59.0922 156.677 58.9358C156.901 58.4048 156.989 57.8266 156.935 57.253C156.88 56.6793 156.684 56.1282 156.364 55.6489Z" fill="#F9F9F9"/>
<path d="M122.631 57.991C121.356 61.805 122.943 65.5178 122.943 64.0813C123.135 63.5075 123.321 56.6098 122.631 57.991Z" fill="#F9F9F9"/>
<path d="M128.565 57.5221C128.268 58.5617 128.41 59.2493 128.41 62.6765C128.41 63.637 128.481 64.0816 129.19 64.0816C129.628 63.79 129.503 63.552 129.503 60.9587C129.503 55.9173 128.378 57.5221 128.565 57.5221Z" fill="#F9F9F9"/>
<path d="M135.749 64.0819C136.025 63.6696 135.677 55.4816 134.656 57.5224C134.741 57.5224 134.385 65.4504 135.749 64.0819Z" fill="#F9F9F9"/>
<path d="M140.748 57.6784C140.576 59.3906 140.523 61.1126 140.591 62.832C140.591 63.3012 140.591 64.0815 140.904 64.3943C141.059 64.5507 141.329 64.5439 141.372 64.3943C141.509 63.8325 141.561 63.2536 141.528 62.6764C141.593 60.9522 141.489 59.2258 141.216 57.522C141.216 57.3665 140.748 57.3665 140.748 57.6784Z" fill="#F9F9F9"/>
<path d="M147.462 57.8345C147.462 57.9195 146.967 63.4445 147.931 64.2376C149.067 65.1683 148.517 60.0097 148.413 59.3713C147.971 56.6411 147.475 57.4945 147.462 57.8345Z" fill="#F9F9F9"/>
<path d="M89.8342 25.3505C89.2622 27.0675 89.7254 27.0361 89.3659 28.4743C89.3659 29.4093 89.2095 30.6605 89.6778 31.4416C89.8342 31.7536 90.147 31.5972 90.147 31.4416C90.3434 30.8517 90.3026 30.5916 90.3026 26.912C90.3026 26.4436 90.147 25.977 90.147 25.3505C90.3026 25.1941 89.9906 25.0377 89.8342 25.3505Z" fill="#F9F9F9"/>
<path d="M95.7688 24.8818C95.444 26.5791 95.3392 28.3112 95.4569 30.0353C95.4569 30.5037 95.4569 31.2848 95.9252 31.4412H96.2372C96.7055 31.1284 96.55 30.5062 96.55 30.0353C96.6645 28.3112 96.5594 26.5794 96.2372 24.8818C96.0808 24.7254 95.7688 24.569 95.7688 24.8818Z" fill="#F9F9F9"/>
<path d="M107.95 25.0376C107.779 26.7501 107.727 28.4724 107.794 30.192C107.794 30.6604 107.794 31.4415 108.106 31.7535C108.263 31.9099 108.564 31.9235 108.61 31.7713C108.734 31.2017 108.775 30.617 108.731 30.0356C108.797 28.3117 108.692 26.5855 108.419 24.8821C108.419 24.7257 107.95 24.7257 107.95 25.0376Z" fill="#F9F9F9"/>
<path d="M114.665 25.1937C114.665 25.2787 114.119 33.08 115.6 31.5967C116.123 30.813 115.401 26.0794 115.131 25.0373C115.06 24.7517 114.665 24.8817 114.665 25.1937Z" fill="#F9F9F9"/>
<path d="M115.259 90.675C115.137 91.5318 115.207 96.7831 115.884 97.2345C115.911 97.2707 115.947 97.3002 115.987 97.3204C116.028 97.3407 116.073 97.3512 116.118 97.3512C116.163 97.3512 116.208 97.3407 116.249 97.3204C116.29 97.3002 116.325 97.2707 116.352 97.2345C116.848 96.4907 116.036 91.2088 115.884 90.675C115.884 90.3622 115.412 90.3622 115.259 90.675Z" fill="#F9F9F9"/>
<path d="M121.349 90.9865C121.178 92.6986 121.126 94.4206 121.194 96.14C121.194 96.6092 121.194 97.3895 121.506 97.7023C121.662 97.8579 121.974 97.8579 121.974 97.7023C122.287 97.234 122.131 96.6092 122.131 95.9845C122.196 94.2603 122.092 92.5338 121.819 90.8301C121.819 90.5181 121.349 90.6745 121.349 90.9865Z" fill="#F9F9F9"/>
<path d="M129.159 95.6715C129.113 94.0396 128.904 92.4164 128.534 90.8265C128.435 90.5069 128.145 90.6429 128.066 90.9829C127.942 91.5467 127.889 92.1238 127.909 92.7007C127.909 94.3625 127.804 95.306 127.909 95.9307C127.913 96.2024 127.971 96.4707 128.079 96.7201C128.187 96.9695 128.343 97.1951 128.538 97.3842C128.565 97.4206 128.601 97.4502 128.641 97.4706C128.682 97.4909 128.727 97.5015 128.772 97.5015C128.818 97.5015 128.863 97.4909 128.903 97.4706C128.944 97.4502 128.979 97.4206 129.006 97.3842C129.315 96.921 129.159 96.2962 129.159 95.6715Z" fill="#F9F9F9"/>
<path d="M109.637 92.8617C109.637 93.6429 109.48 94.4232 109.48 95.2043V96.9222C109.48 97.235 109.793 97.3905 110.105 97.3905C111.226 97.3905 110.365 94.6187 110.105 93.0181C110.026 92.5302 109.637 92.7053 109.637 92.8617Z" fill="#F9F9F9"/>
<path d="M81.0902 24.1012C80.4237 23.956 79.7404 23.9034 79.0595 23.9448C75.7777 24.023 72.3445 23.6328 69.0644 24.1012C67.983 24.3033 66.9965 24.8513 66.2534 25.6626C65.6137 26.4902 65.2666 27.5066 65.2666 28.5526C65.2666 29.5986 65.6137 30.6151 66.2534 31.4426C68.1846 33.9357 72.4159 33.0041 76.8733 33.0041C78.1216 32.9259 79.3736 32.9259 80.6218 33.0041C80.7184 32.994 80.8078 32.9485 80.8728 32.8763C80.9378 32.8042 80.9737 32.7106 80.9737 32.6135C80.9737 32.5164 80.9378 32.4227 80.8728 32.3506C80.8078 32.2785 80.7184 32.233 80.6218 32.2229C79.686 32.1502 78.7459 32.1502 77.81 32.2229C76.7186 32.3929 75.4674 32.3793 74.3743 32.5357C71.0772 32.5357 69.3525 32.7015 67.9713 31.911C67.1374 31.3799 66.5415 30.5466 66.3085 29.5859C66.0756 28.6251 66.2237 27.6114 66.7218 26.7574C67.6568 25.1951 69.5327 24.8832 71.2514 24.8832C73.906 24.7268 76.5614 25.0387 79.2159 24.8832C79.8966 24.9089 80.5779 24.8565 81.2466 24.7268C81.2449 24.414 81.2449 24.2576 81.0902 24.1012Z" fill="#F9F9F9"/>
<path d="M102.239 25.0004C102.203 25.2195 102.181 25.4407 102.172 25.6625C102.172 27.0939 102.123 27.3311 102.329 27.5368C102.616 27.8241 102.953 27.1118 102.953 26.912C103.008 26.278 102.974 25.6393 102.851 25.0148C102.795 24.827 102.281 24.7675 102.239 25.0004Z" fill="#F9F9F9"/>
<path d="M48.7599 69.8603C48.9173 70.0907 49.1262 70.2812 49.3702 70.4166C49.6141 70.5521 49.8862 70.6288 50.165 70.6406C50.9461 70.6406 51.1 71.1089 50.6333 71.4217C50.2797 71.5993 49.8711 71.6334 49.493 71.517C49.1148 71.4006 48.7961 71.1427 48.6035 70.797C48.0646 69.9546 48.1352 69.2356 48.7599 69.8603Z" fill="#F5DEB3"/>
<path d="M46.8864 60.1798C46.6395 60.1473 46.3886 60.1894 46.1659 60.3008C45.9432 60.4121 45.759 60.5876 45.6369 60.8045C45.1685 61.4293 44.7775 61.2873 44.8557 60.6481C44.8777 60.255 45.0543 59.8866 45.3471 59.6234C45.6398 59.3601 46.0248 59.2234 46.418 59.2431C47.5154 59.2405 47.6667 60.0208 46.8864 60.1798Z" fill="#F5DEB3"/>
<path d="M47.5112 63.3016C48.2013 63.3016 48.7607 62.9518 48.7607 62.5204C48.7607 62.089 48.2013 61.7393 47.5112 61.7393C46.8211 61.7393 46.2617 62.089 46.2617 62.5204C46.2617 62.9518 46.8211 63.3016 47.5112 63.3016Z" fill="#F5DEB3"/>
</svg>
