<svg width="120" height="90" viewBox="0 0 120 90" fill="none" xmlns="http://www.w3.org/2000/svg">
<mask id="mask0_77_3726" style="mask-type:luminance" maskUnits="userSpaceOnUse" x="0" y="0" width="120" height="90">
<path d="M120 0H0V89.8261H120V0Z" fill="white"/>
</mask>
<g mask="url(#mask0_77_3726)">
<path d="M78.4596 6.87793H4.76619C2.52923 6.87793 0.71582 8.69134 0.71582 10.9283V29.2038C0.71582 31.4407 2.52923 33.2542 4.76619 33.2542H78.4596C80.6965 33.2542 82.5099 31.4407 82.5099 29.2038V10.9283C82.5099 8.69134 80.6965 6.87793 78.4596 6.87793Z" fill="white"/>
<path d="M82.51 23.3857V31.6736C82.51 32.5466 80.7511 33.2534 78.594 33.2534H4.63675C2.47325 33.2534 0.720703 32.5466 0.720703 31.6736V26.8764C5.70651 28.1973 11.3831 29.0879 17.2052 29.6412C24.241 30.3096 31.4926 30.5047 38.7139 30.5335C47.3487 30.5686 56.1275 30.3592 64.2554 29.1871C71.7037 28.1157 78.61 26.1409 82.51 23.3857Z" fill="#E8F0F9"/>
<path d="M78.3834 33.9234H4.68999C3.4468 33.9221 2.25485 33.4278 1.37563 32.5488C0.496409 31.67 0.00169308 30.4782 0 29.235V10.9579C0.00169308 9.71473 0.496409 8.52296 1.37563 7.64403C2.25485 6.76512 3.4468 6.27081 4.68999 6.26953H78.3834C79.6268 6.27081 80.819 6.76533 81.6983 7.64461C82.5775 8.52387 83.0721 9.71606 83.0734 10.9595V29.2366C83.0713 30.4795 82.5764 31.6708 81.6972 32.5495C80.8179 33.428 79.6263 33.9221 78.3834 33.9234ZM4.68999 7.54876C3.78594 7.54961 2.91913 7.90901 2.27972 8.54813C1.64031 9.18724 1.2805 10.0539 1.27923 10.9579V29.235C1.28008 30.1392 1.6397 31.0064 2.27916 31.6458C2.91862 32.2853 3.78566 32.6449 4.68999 32.6457H78.3834C79.2876 32.6449 80.1548 32.2853 80.7942 31.6458C81.4337 31.0064 81.7933 30.1392 81.7941 29.235V10.9579C81.7933 10.0536 81.4337 9.18655 80.7942 8.54709C80.1548 7.90764 79.2876 7.54801 78.3834 7.54716L4.68999 7.54876Z" fill="#314E5D"/>
<path d="M115.398 47.8135H31.1617C28.9248 47.8135 27.1113 49.6268 27.1113 51.8638V70.1393C27.1113 72.3762 28.9248 74.1897 31.1617 74.1897H115.398C117.634 74.1897 119.448 72.3762 119.448 70.1393V51.8638C119.448 49.6268 117.634 47.8135 115.398 47.8135Z" fill="white"/>
<path d="M119.448 64.3213V72.6091C119.448 73.4822 117.468 74.189 115.027 74.189H31.5327C29.0909 74.189 27.1113 73.4822 27.1113 72.6091V67.812C32.74 69.1328 39.1489 70.0235 45.721 70.5767C53.6554 71.2451 61.8489 71.4402 70.0024 71.469C79.7469 71.5042 89.661 71.2947 98.8363 70.1226C107.249 69.0513 115.046 67.0764 119.448 64.3213Z" fill="#E8F0F9"/>
<path d="M60.495 47.879C51.7962 48.4003 39.7075 47.8966 32.2064 49.8139C28.6453 50.7221 27.7674 52.4843 27.1934 53.941L27.2046 49.8618C27.2046 49.3389 27.2541 48.7697 28.1992 48.3699C29.3681 47.8774 31.4196 47.839 33.2265 47.8406C42.098 47.8438 51.7994 47.492 60.495 47.879Z" fill="#4ED9FF"/>
<path d="M115.311 74.8585H31.0738C29.8305 74.8572 28.6386 74.363 27.7594 73.484C26.8801 72.6052 26.3855 71.4134 26.3838 70.1701V51.8931C26.3851 50.6497 26.8797 49.4575 27.7588 48.5783C28.6381 47.699 29.8304 47.2044 31.0738 47.2031H115.311C116.555 47.2044 117.747 47.699 118.626 48.5783C119.505 49.4575 120 50.6497 120.001 51.8931V70.1701C119.999 71.4134 119.505 72.6052 118.626 73.484C117.746 74.363 116.554 74.8572 115.311 74.8585ZM31.0738 48.484C30.1697 48.4848 29.303 48.8442 28.6635 49.4834C28.0241 50.1225 27.6643 50.989 27.663 51.8931V70.1701C27.6638 71.0746 28.0234 71.9416 28.6629 72.581C29.3024 73.2205 30.1695 73.5801 31.0738 73.5809H115.311C116.215 73.5801 117.083 73.2205 117.722 72.581C118.362 71.9416 118.721 71.0746 118.722 70.1701V51.8931C118.721 50.9889 118.362 50.1217 117.722 49.4822C117.083 48.8428 116.215 48.4833 115.311 48.4824L31.0738 48.484Z" fill="#314E5D"/>
<path d="M103.69 0.540039H19.4654C17.2285 0.540039 15.415 2.35345 15.415 4.59041V79.7757C15.415 82.0126 17.2285 83.8261 19.4654 83.8261H103.69C105.927 83.8261 107.74 82.0126 107.74 79.7757V4.59041C107.74 2.35345 105.927 0.540039 103.69 0.540039Z" fill="#D6EAF8"/>
<path d="M107.74 52.6689V78.8324C107.74 81.5876 105.76 83.8199 103.318 83.8199H19.8276C17.3858 83.8199 15.4062 81.5812 15.4062 78.8324V63.7023C21.0349 67.8726 27.4422 70.6869 34.0127 72.4347C41.9471 74.547 50.139 75.1642 58.2909 75.2538C68.0355 75.3641 77.9463 74.7021 87.1216 71.0003C95.5422 67.6072 103.339 61.3677 107.74 52.6689Z" fill="#D6EAF8"/>
<path d="M48.7949 0.749889C40.0977 2.3985 28.017 0.807455 20.5095 6.85822C16.95 9.7269 16.0721 15.29 15.498 19.8903L15.5108 7.01333C15.5108 5.36472 15.5604 3.5626 16.5055 2.30415C17.6744 0.749889 19.7259 0.629961 21.5312 0.629961C30.3995 0.639555 40.0993 -0.45099 48.7949 0.749889Z" fill="#D6EAF8"/>
<path d="M103.604 84.5653H19.3775C18.1341 84.564 16.9418 84.0694 16.0625 83.1902C15.1833 82.3109 14.6888 81.1187 14.6875 79.8753V4.68999C14.6888 3.44651 15.1833 2.25434 16.0625 1.37507C16.9418 0.4958 18.1341 0.00126993 19.3775 0H103.604C104.847 0.00126993 106.039 0.4958 106.919 1.37507C107.798 2.25434 108.292 3.44651 108.294 4.68999V79.8769C108.292 81.1201 107.797 82.3119 106.918 83.1907C106.039 84.0697 104.847 84.564 103.604 84.5653ZM19.3775 1.27923C18.4732 1.28008 17.6061 1.6397 16.9666 2.27916C16.3271 2.91862 15.9676 3.78566 15.9667 4.68999V79.8769C15.9676 80.7811 16.3271 81.6483 16.9666 82.2877C17.6061 82.9272 18.4732 83.2868 19.3775 83.2876H103.604C104.508 83.2868 105.375 82.9272 106.015 82.2877C106.654 81.6483 107.014 80.7811 107.014 79.8769V4.68999C107.014 3.78566 106.654 2.91862 106.015 2.27916C105.375 1.6397 104.508 1.28008 103.604 1.27923H19.3775Z" fill="#314E5D"/>
<path d="M97.2171 5.91016H26.3124C24.9118 5.91016 23.7764 7.0456 23.7764 8.44623V75.0863C23.7764 76.4869 24.9118 77.6223 26.3124 77.6223H97.2171C98.6177 77.6223 99.7532 76.4869 99.7532 75.0863V8.44623C99.7532 7.0456 98.6177 5.91016 97.2171 5.91016Z" fill="white"/>
<path d="M99.631 7.94363V21.8681H23.6494V7.94363C23.6494 6.87547 24.7368 6.00879 26.0784 6.00879H97.2021C98.5437 6.00879 99.631 6.87547 99.631 7.94363Z" fill="#212F3D"/>
<path d="M97.126 78.6599H26.2245C25.3825 78.6591 24.5753 78.3243 23.9799 77.7288C23.3845 77.1334 23.0496 76.3263 23.0488 75.4842V8.32449C23.0501 7.48278 23.3851 6.67594 23.9804 6.0809C24.5758 5.48587 25.3828 5.15124 26.2245 5.15039H97.126C97.9679 5.15124 98.7752 5.48609 99.3705 6.08146C99.966 6.67685 100.301 7.48411 100.302 8.32609V75.4858C100.3 76.3275 99.9654 77.1344 99.3701 77.7294C98.7747 78.3244 97.9677 78.6591 97.126 78.6599ZM26.2245 6.42962C25.7218 6.43047 25.2398 6.63056 24.8844 6.98602C24.5289 7.34149 24.3289 7.82338 24.3281 8.32609V75.4858C24.3293 75.9882 24.5295 76.4697 24.885 76.8248C25.2405 77.18 25.7221 77.3799 26.2245 77.3807H97.126C97.6287 77.3799 98.1105 77.1797 98.466 76.8242C98.8214 76.4687 99.0216 75.9869 99.0224 75.4842V8.32449C99.0212 7.82205 98.821 7.34058 98.4655 6.98547C98.11 6.63033 97.6284 6.43047 97.126 6.42962H26.2245Z" fill="#314E5D"/>
<path d="M64.5377 15.2852H32.2227V18.0771H64.5377V15.2852Z" fill="white"/>
<path d="M31.2148 28.7398H47.0246V28.0762H31.2148V28.7398Z" fill="#CED5D8"/>
<path d="M31.2148 30.2007H65.6246V29.5371H31.2148V30.2007Z" fill="#CED5D8"/>
<path d="M31.2148 31.6626H47.0246V30.999H31.2148V31.6626Z" fill="#CED5D8"/>
<path d="M31.2148 33.1236H65.6246V32.46H31.2148V33.1236Z" fill="#CED5D8"/>
<path d="M31.2148 34.5855H47.0246V33.9219H31.2148V34.5855Z" fill="#CED5D8"/>
<path d="M31.2148 36.0464H65.6246V35.3828H31.2148V36.0464Z" fill="#CED5D8"/>
<path d="M31.2148 41.9458H47.0246V41.2822H31.2148V41.9458Z" fill="#CED5D8"/>
<path d="M31.2148 43.4077H65.6246V42.7441H31.2148V43.4077Z" fill="#CED5D8"/>
<path d="M31.2148 44.8697H47.0246V44.2061H31.2148V44.8697Z" fill="#CED5D8"/>
<path d="M31.2148 46.3306H65.6246V45.667H31.2148V46.3306Z" fill="#CED5D8"/>
<path d="M31.2148 47.7915H47.0246V47.1279H31.2148V47.7915Z" fill="#CED5D8"/>
<path d="M31.2148 49.2525H65.6246V48.5889H31.2148V49.2525Z" fill="#CED5D8"/>
<path d="M31.2148 55.1529H47.0246V54.4893H31.2148V55.1529Z" fill="#CED5D8"/>
<path d="M31.2148 56.6138H65.6246V55.9502H31.2148V56.6138Z" fill="#CED5D8"/>
<path d="M31.2148 58.0757H47.0246V57.4121H31.2148V58.0757Z" fill="#CED5D8"/>
<path d="M31.2148 59.5366H65.6246V58.873H31.2148V59.5366Z" fill="#CED5D8"/>
<path d="M31.2148 60.9986H47.0246V60.335H31.2148V60.9986Z" fill="#CED5D8"/>
<path d="M31.2148 62.4585H65.6246V61.7949H31.2148V62.4585Z" fill="#CED5D8"/>
<path d="M84.583 10.3813H96.4511V8.98535H84.583V10.3813Z" fill="#F5DEB3"/>
<path d="M71.0771 10.3813H82.9452V8.98535H71.0771V10.3813Z" fill="#F5DEB3"/>
<path d="M27.4255 11.0287C28.169 11.0287 28.7719 10.4259 28.7719 9.68233C28.7719 8.93874 28.169 8.33594 27.4255 8.33594C26.6819 8.33594 26.0791 8.93874 26.0791 9.68233C26.0791 10.4259 26.6819 11.0287 27.4255 11.0287Z" fill="#F5DEB3"/>
<path d="M75.0245 60.1621L70.7314 64.2333L79.4425 73.4193L83.7356 69.3481L75.0245 60.1621Z" fill="#314E5D"/>
<g opacity="0.5">
<path opacity="0.5" d="M71.3004 60.3075C76.8953 55.0019 77.1299 46.1653 71.8241 40.5704C66.5185 34.9755 57.6819 34.7409 52.087 40.0465C46.4921 45.3523 46.2575 54.1889 51.5631 59.7838C56.8689 65.3787 65.7055 65.6131 71.3004 60.3075Z" fill="#8BDDEB"/>
<path opacity="0.5" d="M54.3363 58.2446C52.9244 56.7566 51.858 54.9756 51.2129 53.0283C50.5679 51.0811 50.36 49.0155 50.6043 46.9788C50.8487 44.9421 51.539 42.9844 52.6263 41.2448C53.7135 39.5053 55.171 38.027 56.8948 36.915C55.0503 37.591 53.3692 38.6486 51.9614 40.0186C50.5536 41.3887 49.4508 43.0403 48.7251 44.8658C47.9993 46.6913 47.6669 48.6493 47.7497 50.6119C47.8324 52.5746 48.3284 54.4978 49.2053 56.2556C50.0821 58.0134 51.3201 59.5666 52.8382 60.8132C54.3563 62.06 56.1204 62.9722 58.0152 63.4905C59.9101 64.0087 61.8929 64.1213 63.8341 63.8208C65.7755 63.5204 67.6315 62.8134 69.281 61.7465C66.7201 62.6865 63.9402 62.8558 61.2843 62.2334C58.6283 61.6111 56.213 60.2244 54.3363 58.2446Z" fill="#62D6F8"/>
</g>
<path d="M76.9298 35.2718C75.4084 33.6636 73.6473 32.3006 71.709 31.231C71.6754 31.2102 71.6418 31.1926 71.605 31.1751C67.1239 28.7348 61.9211 27.9677 56.9265 29.0108C51.9317 30.054 47.4709 32.8393 44.3411 36.8692C41.2113 40.899 39.6167 45.9105 39.8423 51.0081C40.068 56.1055 42.0991 60.9565 45.5727 64.6941C45.6222 64.7501 45.6734 64.8045 45.7326 64.854C47.3209 66.533 49.1703 67.944 51.2093 69.0323L51.2668 69.0627C55.7728 71.4461 60.9789 72.1509 65.9564 71.0516C70.9339 69.9523 75.3589 67.1202 78.4419 63.0607C81.525 59.0012 83.0654 53.9785 82.7884 48.8886C82.5114 43.7987 80.4351 38.9728 76.9298 35.2718ZM71.6706 40.571C73.5707 42.5746 74.8341 45.0966 75.3009 47.818C75.7677 50.5396 75.417 53.3386 74.2932 55.8607C73.1692 58.3829 71.3228 60.5152 68.9869 61.9879C66.6512 63.4608 63.9312 64.2077 61.171 64.1346C58.4106 64.0616 55.7339 63.1715 53.4794 61.5771C51.2249 59.9827 49.494 57.7557 48.5051 55.1775C47.5164 52.5993 47.3143 49.7858 47.9247 47.0929C48.5349 44.3998 49.93 41.9483 51.9336 40.0481C53.2639 38.7865 54.8297 37.7992 56.5416 37.1427C58.2535 36.4863 60.0779 36.1735 61.9107 36.2221C63.7435 36.2709 65.5488 36.6801 67.2233 37.4265C68.898 38.1731 70.4091 39.2421 71.6706 40.5726V40.571Z" fill="#E7E7E7"/>
<path d="M78.4379 62.59C74.7871 66.0524 70.0377 68.1248 65.0164 68.4462C59.995 68.7678 55.0201 67.3181 50.9574 64.3496C46.8949 61.381 44.0021 57.0816 42.7827 52.2001C41.5634 47.3185 42.0946 42.164 44.284 37.6338C42.5142 40.0429 41.266 42.7947 40.6193 45.7133C39.9728 48.632 39.9418 51.6534 40.5286 54.5846C41.1153 57.5158 42.3068 60.2925 44.027 62.7374C45.7473 65.1824 47.9584 67.2416 50.5193 68.7839C53.0802 70.3262 55.9344 71.3176 58.8999 71.6948C61.8654 72.0718 64.8771 71.8266 67.7424 70.9743C70.6077 70.1221 73.264 68.6817 75.5414 66.7453C77.8187 64.8088 79.6674 62.4188 80.9692 59.7277C80.2116 60.7546 79.3644 61.7125 78.4379 62.59Z" fill="#CED0D0"/>
<path d="M61.5083 72.32C57.827 72.3218 54.2042 71.3992 50.9722 69.6369L50.8923 69.5937C46.1984 67.0112 42.5958 62.8197 40.7479 57.7912C40.7064 57.6824 40.6664 57.5689 40.6296 57.4522C39.17 53.2523 39.0083 48.7102 40.1661 44.4173C41.3236 40.1243 43.7468 36.2794 47.1201 33.3828C50.4935 30.4861 54.6606 28.6722 59.0792 28.1769C63.4978 27.6816 67.9631 28.5279 71.8941 30.6059C71.9372 30.6267 71.9804 30.6507 72.022 30.6746C76.16 32.8992 79.4831 36.3823 81.5107 40.6202C83.5384 44.858 84.1657 49.6311 83.3016 54.249C82.4377 58.8668 80.1272 63.0902 76.7044 66.3083C73.2817 69.5264 68.9242 71.5723 64.2618 72.1506C63.3483 72.2631 62.4287 72.3197 61.5083 72.32ZM61.5451 29.3059C58.2149 29.307 54.9334 30.1049 51.9745 31.6329C49.0156 33.161 46.4653 35.3747 44.5364 38.0894C42.6076 40.8041 41.3562 43.9409 40.8869 47.2378C40.4176 50.5347 40.7438 53.8961 41.8385 57.0412V57.0604C41.8689 57.1563 41.904 57.2523 41.9392 57.3466C43.6804 62.0899 47.0785 66.0433 51.5063 68.4776L51.5623 68.5079C55.9276 70.8958 61.003 71.6446 65.8721 70.619C70.741 69.5934 75.083 66.8611 78.1145 62.9153C81.1458 58.9693 82.6668 54.0699 82.403 49.101C82.139 44.1322 80.1075 39.4212 76.6752 35.8188C75.1462 34.2018 73.3673 32.8413 71.4063 31.7892L71.3824 31.7748L71.3312 31.7476L71.3072 31.7348C68.3004 30.1406 64.9485 29.3083 61.5451 29.3107V29.3059ZM61.5451 64.7742C61.4123 64.7742 61.2812 64.7742 61.1485 64.7742C57.2983 64.7217 53.6252 63.1488 50.9303 60.3984C48.2355 57.6481 46.7376 53.9436 46.7639 50.0931C46.7901 46.2426 48.3379 42.5587 51.0701 39.8453C53.802 37.1319 57.4963 35.609 61.3468 35.609C65.1973 35.609 68.8915 37.1319 71.6237 39.8453C74.3556 42.5587 75.9035 46.2426 75.9297 50.0931C75.9559 53.9436 74.4581 57.6481 71.7633 60.3984C69.0685 63.1488 65.3952 64.7217 61.5451 64.7742ZM61.5275 36.8517C58.118 36.8447 54.8373 38.1542 52.3698 40.5071C50.1338 42.6276 48.7024 45.4578 48.3192 48.5155C47.9361 51.5731 48.6248 54.669 50.2683 57.2758C51.912 59.8824 54.4084 61.8387 57.3326 62.8112C60.2566 63.7836 63.4275 63.7121 66.3048 62.6088C69.1819 61.5056 71.5878 59.4388 73.112 56.7606C74.6364 54.0825 75.185 50.9586 74.6644 47.9214C74.1437 44.884 72.5861 42.1214 70.257 40.1037C67.9276 38.086 64.971 36.9386 61.8905 36.8565C61.7721 36.8565 61.6527 36.8565 61.5323 36.8565L61.5275 36.8517Z" fill="#314E5D"/>
<path d="M78.4557 67.7059L78.4546 67.707C76.6321 69.4352 76.5557 72.3135 78.2839 74.1361L91.2136 87.7706C92.9419 89.5931 95.8203 89.6695 97.6427 87.9413L97.6438 87.9401C99.4663 86.2119 99.5427 83.3335 97.8145 81.511L84.8848 67.8765C83.1565 66.0539 80.2781 65.9776 78.4557 67.7059Z" fill="#426372"/>
<path d="M94.3258 89.8258H94.1835C93.5026 89.8105 92.8313 89.6603 92.2088 89.3839C91.5863 89.1075 91.0249 88.7103 90.5569 88.2156L77.6286 74.579C77.1598 74.0846 76.7929 73.5028 76.5489 72.8667C76.3051 72.2306 76.1888 71.5526 76.2069 70.8716C76.2248 70.1907 76.3769 69.5198 76.6542 68.8976C76.9314 68.2752 77.3286 67.7137 77.8229 67.245C78.3172 66.7761 78.899 66.4093 79.5351 66.1653C80.1712 65.9215 80.8491 65.805 81.5301 65.8231C82.2111 65.8412 82.8819 65.9932 83.5043 66.2705C84.1265 66.5478 84.6881 66.9448 85.1569 67.4393L98.0867 81.0711C99.0302 82.071 99.5391 83.4036 99.5027 84.7778C99.4661 86.152 98.8869 87.4559 97.8916 88.4043C96.9308 89.3202 95.6533 89.8295 94.3258 89.8258ZM81.3912 67.1035C80.6279 67.1052 79.882 67.3302 79.2451 67.7508C78.6082 68.1713 78.1083 68.769 77.8069 69.4702C77.5055 70.1714 77.4159 70.9453 77.549 71.6969C77.6822 72.4483 78.0322 73.1445 78.5561 73.6995L91.4843 87.3329C92.1994 88.0819 93.1818 88.5178 94.2171 88.5455C95.2524 88.573 96.2566 88.19 97.0106 87.48C97.7597 86.7648 98.1956 85.7825 98.2231 84.7471C98.2506 83.7119 97.8677 82.7077 97.1577 81.9538L84.2294 68.3203C83.8642 67.9348 83.424 67.6281 82.936 67.4188C82.4478 67.2096 81.9222 67.1022 81.3912 67.1035Z" fill="#314E5D"/>
<g opacity="0.5">
<path opacity="0.5" d="M82.8145 69.4111C84.4135 70.7543 85.6496 72.4253 87.1431 73.8708C87.5876 74.3009 88.2624 73.6229 87.8211 73.1928C86.3276 71.7537 85.0915 70.0763 83.4925 68.7331C83.0223 68.3381 82.3412 69.0129 82.8145 69.4111Z" fill="white"/>
<path opacity="0.5" d="M80.055 69.1089C80.3111 68.9501 80.5991 68.8499 80.8983 68.815C81.1976 68.7802 81.501 68.8118 81.7867 68.9074C82.38 69.0801 82.6342 68.1543 82.0426 67.9816C81.6331 67.8524 81.2007 67.8121 80.7744 67.8634C80.3481 67.9146 79.9376 68.0564 79.5704 68.279C79.0412 68.5988 79.5225 69.4255 80.0502 69.1073L80.055 69.1089Z" fill="white"/>
</g>
<path d="M66.8476 32.6441C69.3981 33.4196 71.7966 34.6605 73.789 36.4306C76.3187 38.6692 78.0393 41.6083 79.0915 44.8C79.2834 45.3836 80.2108 45.1342 80.0173 44.5441C78.9156 41.2021 77.1183 38.1016 74.4686 35.7494C72.3451 33.8657 69.809 32.5513 67.1051 31.7166C66.5134 31.5359 66.2608 32.4618 66.8492 32.6425L66.8476 32.6441Z" fill="white"/>
<path d="M57.5303 31.7536C59.1981 31.533 60.9267 31.6145 62.5929 31.784C63.2069 31.8464 63.2021 30.887 62.5929 30.8246C60.9267 30.6551 59.1981 30.5735 57.5303 30.7942C56.9275 30.8742 56.9195 31.8352 57.5303 31.7536Z" fill="white"/>
</g>
</svg>